<?xml version="1.0" encoding="UTF-8"?>
<svg id="Ebene_1" data-name="Ebene 1" xmlns="http://www.w3.org/2000/svg" viewBox="0 0 841.89 595.28">
  <defs>
    <style>
      .cls-1 {
        fill: #878787;
      }

      .cls-1, .cls-2, .cls-3, .cls-4, .cls-5, .cls-6 {
        stroke-width: 0px;
      }

      .cls-2 {
        fill: #706f6f;
      }

      .cls-3 {
        fill: #c6c6c6;
      }

      .cls-4 {
        fill: #d5d5d5;
      }

      .cls-5 {
        fill: #b2b2b2;
      }

      .cls-6 {
        fill: #fff;
      }
    </style>
  </defs>
  <g>
    <circle class="cls-2" cx="420.94" cy="297.63" r="195.52"/>
    <path class="cls-2" d="m420.94,512.7c-118.57,0-215.07-96.5-215.07-215.07s96.5-215.07,215.07-215.07,215.07,96.5,215.07,215.07-96.5,215.07-215.07,215.07Zm0-391.03c-97.03,0-175.96,78.93-175.96,175.96s78.93,175.96,175.96,175.96,175.96-78.93,175.96-175.96-78.93-175.96-175.96-175.96Z"/>
  </g>
  <g>
    <path class="cls-5" d="m371.39,450.51c39.49-5.96,66.69-42.6,60.77-81.83-3.57-23.68-7.15-47.36-10.72-71.04-23.83,3.6-47.66,7.19-71.49,10.79-39.49,5.96-66.69,42.6-60.77,81.83,5.92,39.24,42.73,66.21,82.22,60.25Z"/>
    <path class="cls-6" d="m360.53,468.79c-43.65,0-81.98-31.79-88.59-75.95-3.58-23.58,2.32-47.16,16.59-66.37,14.21-19.18,35.1-31.69,58.81-35.27l88.73-13.39,13.32,88.28c3.58,23.58-2.32,47.16-16.59,66.37-14.24,19.18-35.13,31.72-58.78,35.3h-.03c-4.53.68-9.03,1.02-13.46,1.02Zm46.24-151.29l-54.21,8.18c-14.52,2.21-27.33,9.88-36.02,21.6-8.69,11.69-12.27,26.03-10.12,40.34,4.46,29.68,32.51,50.05,62.35,45.66h0c14.52-2.21,27.29-9.88,36.02-21.6,8.69-11.72,12.27-26.07,10.12-40.38l-8.14-53.8Z"/>
  </g>
  <g>
    <path class="cls-3" d="m551.31,391.63c6.53-39.39-19.9-76.59-59.05-83.08-23.63-3.92-47.25-7.84-70.88-11.75-3.94,23.78-7.89,47.55-11.83,71.33-6.53,39.39,19.9,76.59,59.05,83.08,39.15,6.49,76.17-20.18,82.71-59.58Z"/>
    <path class="cls-6" d="m480.3,469.61c-4.8,0-9.64-.37-14.55-1.19-48.59-8.08-81.5-54.35-73.39-103.14l14.69-88.56,88.08,14.62c48.59,8.08,81.5,54.35,73.39,103.14-7.29,43.89-45.32,75.13-88.22,75.13Zm-44.57-152.75l-8.96,54.11c-4.94,29.85,15.09,58.13,44.7,63.04,29.71,4.7,57.69-15.44,62.63-45.25h0c4.94-29.81-15.09-58.09-44.7-63l-53.67-8.89Z"/>
  </g>
  <g>
    <path class="cls-5" d="m551.52,203.08c-35.45-18.39-78.99-4.74-97.27,30.49-11.03,21.26-22.05,42.52-33.08,63.78,21.39,11.1,42.79,22.19,64.18,33.29,35.45,18.39,78.99,4.74,97.27-30.49,18.27-35.22,4.35-78.68-31.1-97.07Z"/>
    <path class="cls-6" d="m518.63,356.24c-13.94,0-28.08-3.24-41.3-10.09l-79.66-41.36,41.13-79.25c10.97-21.19,29.61-36.8,52.44-43.95,22.76-7.26,47.06-5.04,68.32,6.03,43.92,22.79,61.2,76.87,38.57,120.59-15.84,30.53-47.09,48.04-79.49,48.04Zm-73.94-66.34l48.69,25.28c26.82,13.87,59.97,3.58,73.73-23.07,13.8-26.61,3.2-59.59-23.65-73.56-13.05-6.75-27.87-8.11-41.81-3.68-13.9,4.36-25.21,13.83-31.89,26.75l-25.08,48.28Z"/>
  </g>
  <g>
    <path class="cls-4" d="m372.51,144.07c-28.44,28.03-28.92,73.66-1.06,101.93,16.81,17.06,33.62,34.11,50.43,51.17,17.17-16.92,34.33-33.84,51.5-50.75,28.44-28.03,28.92-73.66,1.06-101.93-27.85-28.26-73.49-28.45-101.93-.42Z"/>
    <path class="cls-6" d="m421.69,321.83l-62.69-63.61c-34.55-35.03-33.97-91.83,1.29-126.58,16.93-16.73,39.35-25.93,63.1-25.93.14,0,.24,0,.37.03,23.92.07,46.34,9.51,63.1,26.51,34.55,35.06,34.01,91.86-1.26,126.62l-63.92,62.97Zm1.7-181.24c-14.55,0-28.25,5.66-38.6,15.88l-.03.03c-21.53,21.23-21.94,55.88-.89,77.24l38.16,38.74,39.12-38.5c21.53-21.23,21.94-55.88.85-77.28-10.15-10.32-23.82-16.05-38.37-16.12h-.24Z"/>
  </g>
  <g>
    <path class="cls-1" d="m260.08,296.93c17.87,35.71,61.12,50.27,96.61,32.51,21.42-10.72,42.83-21.43,64.25-32.15-10.79-21.55-21.57-43.11-32.36-64.66-17.87-35.71-61.12-50.27-96.61-32.51-35.48,17.76-49.76,61.1-31.89,96.81Z"/>
    <path class="cls-6" d="m324.79,354.47c-9.57,0-19.22-1.57-28.59-4.7-22.62-7.63-40.99-23.61-51.72-45.04h0c-10.73-21.43-12.5-45.69-5.04-68.38,7.5-22.73,23.37-41.16,44.74-51.83,21.36-10.7,45.56-12.33,68.28-4.74,22.62,7.63,41.02,23.61,51.72,45.04l40.17,80.28-79.87,39.93c-12.54,6.27-26.07,9.44-39.7,9.44Zm-.89-144.47c-8.28,0-16.49,1.91-24.12,5.72-12.98,6.47-22.66,17.68-27.19,31.52-4.57,13.87-3.48,28.76,3.1,41.88h0c6.54,13.12,17.79,22.9,31.65,27.57,13.77,4.63,28.55,3.65,41.54-2.86l48.66-24.33-24.57-49.03c-6.54-13.15-17.79-22.93-31.65-27.6-5.69-1.91-11.58-2.86-17.41-2.86Z"/>
  </g>
</svg>