<?xml version="1.0" encoding="UTF-8"?>
<svg id="Ebene_1" data-name="Ebene 1" xmlns="http://www.w3.org/2000/svg" viewBox="0 0 841.89 595.28">
  <defs>
    <style>
      .cls-1 {
        fill: #706f6f;
      }

      .cls-1, .cls-2, .cls-3, .cls-4, .cls-5, .cls-6, .cls-7, .cls-8 {
        stroke-width: 0px;
      }

      .cls-2 {
        fill: #1d1d1b;
      }

      .cls-3 {
        fill: #dddc00;
      }

      .cls-4 {
        fill: #7bbb4c;
      }

      .cls-5 {
        fill: #fff;
      }

      .cls-6 {
        fill: #f1853b;
      }

      .cls-7 {
        fill: #eb6117;
      }

      .cls-8 {
        fill: #68c2c3;
      }
    </style>
  </defs>
  <g>
    <circle class="cls-1" cx="238.82" cy="304.17" r="103.99"/>
    <path class="cls-1" d="m238.83,418.56c-63.06,0-114.38-51.32-114.38-114.38s51.32-114.38,114.38-114.38,114.38,51.32,114.38,114.38-51.32,114.38-114.38,114.38Zm0-207.97c-51.61,0-93.59,41.98-93.59,93.59s41.98,93.59,93.59,93.59,93.59-41.98,93.59-93.59-41.98-93.59-93.59-93.59Z"/>
  </g>
  <g>
    <path class="cls-4" d="m212.47,385.48c21-3.17,35.47-22.66,32.32-43.52-1.9-12.59-3.8-25.19-5.7-37.78-12.67,1.91-25.35,3.83-38.02,5.74-21,3.17-35.47,22.66-32.32,43.52,3.15,20.87,22.73,35.21,43.73,32.04Z"/>
    <path class="cls-5" d="m206.7,395.2c-23.21,0-43.6-16.91-47.12-40.39-1.9-12.54,1.23-25.08,8.83-35.3,7.56-10.2,18.67-16.85,31.28-18.76l47.19-7.12,7.09,46.95c1.9,12.54-1.23,25.08-8.83,35.3-7.58,10.2-18.68,16.87-31.26,18.77h-.02c-2.41.36-4.8.54-7.16.54Zm24.59-80.46l-28.83,4.35c-7.72,1.18-14.53,5.26-19.16,11.49-4.62,6.22-6.52,13.85-5.38,21.46,2.37,15.78,17.29,26.62,33.16,24.28h0c7.72-1.18,14.52-5.26,19.16-11.49,4.62-6.23,6.52-13.86,5.38-21.47l-4.33-28.61Z"/>
  </g>
  <g>
    <path class="cls-8" d="m308.16,354.17c3.47-20.95-10.59-40.74-31.41-44.19-12.57-2.08-25.13-4.17-37.7-6.25-2.1,12.65-4.19,25.29-6.29,37.94-3.47,20.95,10.59,40.74,31.41,44.19,20.82,3.45,40.51-10.73,43.99-31.69Z"/>
    <path class="cls-5" d="m270.4,395.64c-2.56,0-5.13-.2-7.74-.63-25.84-4.29-43.35-28.9-39.04-54.86l7.81-47.1,46.85,7.77c25.84,4.29,43.35,28.9,39.04,54.86-3.88,23.34-24.1,39.96-46.92,39.96Zm-23.7-81.24l-4.77,28.78c-2.63,15.87,8.03,30.92,23.78,33.53,15.8,2.5,30.68-8.21,33.31-24.07h0c2.63-15.86-8.03-30.9-23.78-33.51l-28.54-4.73Z"/>
  </g>
  <g>
    <path class="cls-6" d="m308.27,253.89c-18.85-9.78-42.01-2.52-51.73,16.21-5.86,11.31-11.73,22.61-17.59,33.92,11.38,5.9,22.76,11.8,34.14,17.71,18.85,9.78,42.01,2.52,51.73-16.21,9.72-18.73,2.31-41.85-16.54-51.63Z"/>
    <path class="cls-5" d="m290.78,335.35c-7.41,0-14.93-1.72-21.96-5.36l-42.37-22,21.87-42.15c5.84-11.27,15.75-19.57,27.89-23.38,12.11-3.86,25.03-2.68,36.33,3.21,23.36,12.12,32.55,40.88,20.51,64.13-8.43,16.24-25.04,25.55-42.28,25.55Zm-39.33-35.28l25.9,13.45c14.26,7.38,31.89,1.9,39.22-12.27,7.34-14.15,1.7-31.7-12.58-39.13-6.94-3.59-14.82-4.31-22.24-1.96-7.39,2.32-13.41,7.36-16.96,14.23l-13.34,25.68Z"/>
  </g>
  <g>
    <path class="cls-3" d="m213.07,222.5c-15.13,14.91-15.38,39.18-.57,54.21,8.94,9.07,17.88,18.14,26.82,27.22,9.13-9,18.26-18,27.39-26.99,15.13-14.91,15.38-39.18.57-54.21-14.81-15.03-39.09-15.13-54.21-.22Z"/>
    <path class="cls-5" d="m239.23,317.04l-33.34-33.83c-18.38-18.63-18.07-48.84.69-67.32,9.01-8.9,20.93-13.79,33.56-13.79.07,0,.13,0,.2.02,12.72.04,24.65,5.06,33.56,14.1,18.38,18.65,18.09,48.86-.67,67.34l-34,33.49Zm.91-96.39c-7.74,0-15.02,3.01-20.53,8.44l-.02.02c-11.45,11.29-11.67,29.72-.47,41.08l20.3,20.6,20.8-20.48c11.45-11.29,11.67-29.72.45-41.1-5.4-5.49-12.67-8.54-20.41-8.57h-.13Z"/>
  </g>
  <g>
    <path class="cls-7" d="m153.27,303.8c9.5,18.99,32.51,26.73,51.38,17.29,11.39-5.7,22.78-11.4,34.17-17.1-5.74-11.46-11.47-22.93-17.21-34.39-9.5-18.99-32.51-26.73-51.38-17.29-18.87,9.44-26.47,32.5-16.96,51.49Z"/>
    <path class="cls-5" d="m187.69,334.4c-5.09,0-10.22-.83-15.2-2.5-12.03-4.06-21.8-12.56-27.51-23.96h0c-5.71-11.4-6.65-24.3-2.68-36.37,3.99-12.09,12.43-21.89,23.79-27.56,11.36-5.69,24.23-6.56,36.32-2.52,12.03,4.06,21.82,12.56,27.51,23.96l21.37,42.7-42.48,21.24c-6.67,3.33-13.86,5.02-21.11,5.02Zm-.47-76.84c-4.4,0-8.77,1.01-12.83,3.04-6.9,3.44-12.05,9.41-14.46,16.76-2.43,7.38-1.85,15.3,1.65,22.27h0c3.48,6.98,9.46,12.18,16.84,14.66,7.32,2.46,15.19,1.94,22.09-1.52l25.88-12.94-13.07-26.08c-3.48-7-9.46-12.2-16.84-14.68-3.03-1.01-6.16-1.52-9.26-1.52Z"/>
  </g>
  <g>
    <path class="cls-2" d="m414.43,287.39c0,3.49-.63,6.61-1.89,9.37-1.26,2.76-3.02,5.1-5.29,7.03-2.27,1.93-4.97,3.4-8.09,4.41-3.12,1.01-6.53,1.52-10.22,1.52-2.51,0-4.89-.23-7.12-.7-2.23-.47-4.22-1.02-5.96-1.67-1.74-.65-3.21-1.31-4.41-1.98s-2.02-1.24-2.46-1.7c-.45-.47-.77-1.01-.97-1.64-.2-.63-.3-1.41-.3-2.34,0-.69.04-1.26.12-1.7.08-.45.19-.81.33-1.1.14-.28.32-.48.55-.58.22-.1.46-.15.7-.15.57,0,1.37.36,2.4,1.06,1.03.71,2.37,1.48,4.01,2.31,1.64.83,3.61,1.6,5.9,2.31,2.29.71,4.96,1.06,8,1.06,2.47,0,4.74-.33,6.81-1s3.85-1.63,5.35-2.89c1.5-1.26,2.67-2.81,3.5-4.65.83-1.84,1.25-3.94,1.25-6.3s-.53-4.52-1.58-6.27c-1.05-1.74-2.44-3.27-4.17-4.59-1.72-1.32-3.68-2.51-5.87-3.59-2.19-1.07-4.43-2.15-6.72-3.22-2.29-1.07-4.53-2.24-6.72-3.5-2.19-1.26-4.15-2.73-5.87-4.41-1.72-1.68-3.11-3.66-4.17-5.93-1.06-2.27-1.58-4.97-1.58-8.09s.55-5.77,1.64-8.18c1.09-2.41,2.64-4.46,4.62-6.14,1.99-1.68,4.37-2.97,7.15-3.86,2.78-.89,5.83-1.34,9.15-1.34,1.66,0,3.35.16,5.05.49,1.7.33,3.31.74,4.83,1.25,1.52.51,2.88,1.07,4.08,1.7,1.2.63,1.99,1.14,2.37,1.52.38.39.63.67.73.85.1.18.19.42.27.7.08.28.14.62.18,1,.04.39.06.86.06,1.43,0,.53-.03,1-.09,1.43s-.15.79-.27,1.09c-.12.3-.27.54-.46.7-.18.16-.4.24-.64.24-.45,0-1.13-.29-2.04-.88-.91-.59-2.06-1.25-3.44-1.98-1.38-.73-3.02-1.39-4.93-1.98-1.91-.59-4.08-.88-6.51-.88s-4.48.32-6.26.97c-1.79.65-3.26,1.53-4.44,2.65-1.18,1.12-2.06,2.42-2.65,3.92-.59,1.5-.88,3.08-.88,4.74,0,2.43.53,4.52,1.58,6.27,1.05,1.74,2.45,3.28,4.2,4.62,1.74,1.34,3.72,2.55,5.93,3.62,2.21,1.07,4.46,2.15,6.75,3.22,2.29,1.08,4.54,2.23,6.75,3.47,2.21,1.24,4.19,2.7,5.93,4.38,1.74,1.68,3.14,3.65,4.2,5.9s1.58,4.92,1.58,8Z"/>
    <path class="cls-2" d="m478.05,233.38c0,.53-.04.99-.12,1.4-.08.41-.2.74-.37,1-.16.26-.36.47-.61.61-.24.14-.51.21-.79.21h-23.48v70.86c0,.24-.06.47-.18.67-.12.2-.33.37-.61.49-.28.12-.67.22-1.16.3-.49.08-1.08.12-1.76.12s-1.28-.04-1.76-.12c-.49-.08-.87-.18-1.16-.3-.28-.12-.49-.28-.61-.49-.12-.2-.18-.43-.18-.67v-70.86h-23.48c-.33,0-.6-.07-.82-.21-.22-.14-.42-.34-.58-.61-.16-.26-.28-.6-.37-1-.08-.41-.12-.87-.12-1.4,0-.57.04-1.06.12-1.49.08-.43.2-.78.37-1.06s.35-.5.58-.64c.22-.14.5-.21.82-.21h54.38c.28,0,.55.07.79.21.24.14.45.35.61.64s.28.64.37,1.06c.08.43.12.92.12,1.49Z"/>
    <path class="cls-2" d="m543.86,239.89c0,.53-.04,1.01-.12,1.46-.08.45-.19.82-.33,1.13-.14.3-.33.54-.55.7-.22.16-.46.24-.7.24-.49,0-1.29-.41-2.4-1.22-1.12-.81-2.61-1.69-4.47-2.65-1.87-.95-4.13-1.83-6.78-2.65-2.66-.81-5.81-1.22-9.46-1.22-4.66,0-8.82.86-12.47,2.58-3.65,1.72-6.73,4.09-9.25,7.09-2.51,3-4.43,6.56-5.75,10.67-1.32,4.12-1.98,8.55-1.98,13.29,0,5.31.75,10.05,2.25,14.2,1.5,4.16,3.58,7.66,6.23,10.52,2.66,2.86,5.82,5.04,9.49,6.54,3.67,1.5,7.67,2.25,12.01,2.25,2.8,0,5.64-.34,8.52-1.03,2.88-.69,5.58-1.74,8.09-3.16v-25.49h-20.07c-.65,0-1.14-.28-1.46-.85-.33-.57-.49-1.38-.49-2.43,0-.57.04-1.06.12-1.49s.2-.77.37-1.03c.16-.26.37-.47.61-.61.24-.14.53-.21.85-.21h24.09c.37,0,.75.06,1.16.18s.78.33,1.13.61c.34.28.62.68.82,1.19.2.51.3,1.13.3,1.85v29.26c0,.97-.15,1.8-.46,2.49-.3.69-1,1.35-2.1,1.98-1.09.63-2.55,1.32-4.38,2.07-1.82.75-3.71,1.38-5.66,1.89s-3.9.89-5.87,1.16-3.9.4-5.81.4c-5.96,0-11.28-.96-15.97-2.89-4.68-1.92-8.64-4.64-11.86-8.15-3.22-3.51-5.69-7.68-7.39-12.53-1.7-4.84-2.55-10.19-2.55-16.03s.92-11.71,2.77-16.76c1.84-5.05,4.44-9.36,7.79-12.93,3.35-3.57,7.35-6.34,12.01-8.3,4.66-1.97,9.81-2.95,15.45-2.95,2.84,0,5.52.26,8.06.79,2.53.53,4.81,1.17,6.84,1.92,2.03.75,3.75,1.56,5.17,2.43,1.42.87,2.38,1.56,2.89,2.07.51.51.85,1,1.03,1.49.18.49.27,1.2.27,2.13Z"/>
    <path class="cls-2" d="m622.03,239.89c0,.53-.04,1.01-.12,1.46-.08.45-.19.82-.33,1.13-.14.3-.33.54-.55.7-.22.16-.46.24-.7.24-.49,0-1.29-.41-2.4-1.22-1.12-.81-2.61-1.69-4.47-2.65-1.87-.95-4.13-1.83-6.78-2.65-2.66-.81-5.81-1.22-9.46-1.22-4.66,0-8.82.86-12.47,2.58-3.65,1.72-6.73,4.09-9.25,7.09-2.51,3-4.43,6.56-5.75,10.67-1.32,4.12-1.98,8.55-1.98,13.29,0,5.31.75,10.05,2.25,14.2,1.5,4.16,3.58,7.66,6.23,10.52,2.66,2.86,5.82,5.04,9.49,6.54,3.67,1.5,7.67,2.25,12.01,2.25,2.8,0,5.64-.34,8.52-1.03,2.88-.69,5.58-1.74,8.09-3.16v-25.49h-20.07c-.65,0-1.14-.28-1.46-.85-.33-.57-.49-1.38-.49-2.43,0-.57.04-1.06.12-1.49s.2-.77.37-1.03c.16-.26.37-.47.61-.61.24-.14.53-.21.85-.21h24.09c.37,0,.75.06,1.16.18s.78.33,1.13.61c.34.28.62.68.82,1.19.2.51.3,1.13.3,1.85v29.26c0,.97-.15,1.8-.46,2.49-.3.69-1,1.35-2.1,1.98-1.09.63-2.55,1.32-4.38,2.07-1.82.75-3.71,1.38-5.66,1.89s-3.9.89-5.87,1.16-3.9.4-5.81.4c-5.96,0-11.28-.96-15.97-2.89-4.68-1.92-8.64-4.64-11.86-8.15-3.22-3.51-5.69-7.68-7.39-12.53-1.7-4.84-2.55-10.19-2.55-16.03s.92-11.71,2.77-16.76c1.84-5.05,4.44-9.36,7.79-12.93,3.35-3.57,7.35-6.34,12.01-8.3,4.66-1.97,9.81-2.95,15.45-2.95,2.84,0,5.52.26,8.06.79,2.53.53,4.81,1.17,6.84,1.92,2.03.75,3.75,1.56,5.17,2.43,1.42.87,2.38,1.56,2.89,2.07.51.51.85,1,1.03,1.49.18.49.27,1.2.27,2.13Z"/>
    <path class="cls-2" d="m690.33,233.38c0,.53-.04.99-.12,1.4-.08.41-.2.74-.37,1-.16.26-.36.47-.61.61-.24.14-.51.21-.79.21h-23.48v70.86c0,.24-.06.47-.18.67-.12.2-.33.37-.61.49-.28.12-.67.22-1.16.3-.49.08-1.08.12-1.76.12s-1.28-.04-1.76-.12c-.49-.08-.87-.18-1.16-.3-.28-.12-.49-.28-.61-.49-.12-.2-.18-.43-.18-.67v-70.86h-23.48c-.33,0-.6-.07-.82-.21-.22-.14-.42-.34-.58-.61-.16-.26-.28-.6-.37-1-.08-.41-.12-.87-.12-1.4,0-.57.04-1.06.12-1.49.08-.43.2-.78.37-1.06s.35-.5.58-.64c.22-.14.5-.21.82-.21h54.38c.28,0,.55.07.79.21.24.14.45.35.61.64s.28.64.37,1.06c.08.43.12.92.12,1.49Z"/>
  </g>
  <g>
    <path class="cls-2" d="m384.73,342.14c0,1.28-.23,2.43-.69,3.44s-1.11,1.87-1.94,2.58c-.83.71-1.82,1.25-2.97,1.62-1.15.37-2.4.56-3.75.56-.92,0-1.79-.09-2.61-.26-.82-.17-1.55-.38-2.19-.62-.64-.24-1.18-.48-1.62-.73s-.74-.45-.9-.63c-.16-.17-.28-.37-.36-.6-.08-.23-.11-.52-.11-.86,0-.25.01-.46.04-.62.03-.16.07-.3.12-.4s.12-.17.2-.21c.08-.04.17-.06.26-.06.21,0,.5.13.88.39s.87.54,1.47.85c.6.31,1.33.59,2.17.85.84.26,1.82.39,2.94.39.91,0,1.74-.12,2.5-.37s1.41-.6,1.97-1.06c.55-.46.98-1.03,1.28-1.71.31-.68.46-1.45.46-2.31s-.19-1.66-.58-2.3c-.39-.64-.9-1.2-1.53-1.69-.63-.48-1.35-.92-2.16-1.32-.8-.39-1.63-.79-2.47-1.18-.84-.39-1.66-.82-2.47-1.28-.8-.46-1.52-1-2.16-1.62-.63-.62-1.14-1.34-1.53-2.18-.39-.83-.58-1.82-.58-2.97s.2-2.12.6-3c.4-.89.97-1.64,1.7-2.26.73-.62,1.6-1.09,2.62-1.42,1.02-.33,2.14-.49,3.36-.49.61,0,1.23.06,1.85.18.62.12,1.22.27,1.78.46.56.19,1.06.4,1.5.63s.73.42.87.56.23.25.27.31c.04.07.07.15.1.26.03.1.05.23.07.37s.02.32.02.52c0,.19-.01.37-.03.53s-.06.29-.1.4c-.04.11-.1.2-.17.26-.07.06-.14.09-.23.09-.16,0-.41-.11-.75-.32-.33-.22-.76-.46-1.26-.73-.51-.27-1.11-.51-1.81-.73-.7-.21-1.5-.32-2.39-.32s-1.65.12-2.3.36-1.2.56-1.63.97c-.43.41-.76.89-.97,1.44-.22.55-.32,1.13-.32,1.74,0,.89.19,1.66.58,2.3.39.64.9,1.21,1.54,1.7.64.49,1.37.94,2.18,1.33s1.64.79,2.48,1.18c.84.39,1.67.82,2.48,1.27.81.45,1.54.99,2.18,1.61s1.15,1.34,1.54,2.17c.39.83.58,1.81.58,2.94Z"/>
    <path class="cls-2" d="m400.05,348.31c0,.31-.03.57-.08.76s-.13.35-.25.46c-.11.11-.28.22-.49.31s-.47.18-.75.25c-.28.07-.58.12-.89.16-.31.04-.62.06-.92.06-1,0-1.85-.13-2.55-.4-.7-.27-1.27-.67-1.72-1.22-.45-.54-.77-1.23-.97-2.07-.2-.83-.3-1.82-.3-2.95v-12.58h-3.02c-.21,0-.37-.09-.49-.28-.12-.19-.18-.47-.18-.84,0-.19.01-.36.04-.5.03-.14.07-.26.13-.36s.13-.17.21-.21c.08-.04.18-.07.28-.07h3.02v-4.96c0-.09.02-.17.06-.25s.11-.14.21-.19c.1-.05.24-.09.41-.11.17-.02.38-.03.64-.03.27,0,.49.01.66.03s.31.06.4.11c.1.05.17.12.21.19.04.07.07.16.07.25v4.96h5.58c.1,0,.2.02.28.07.08.04.15.12.21.21s.1.22.13.36c.03.14.04.31.04.5,0,.37-.06.65-.19.84-.13.19-.29.28-.48.28h-5.58v12.22c0,1.53.22,2.7.66,3.51.44.8,1.24,1.21,2.4,1.21.36,0,.68-.04.97-.11.29-.07.55-.16.77-.25.22-.09.41-.17.57-.25.16-.07.29-.11.41-.11.07,0,.14.01.2.04.06.03.11.09.14.17s.07.19.09.31c.02.13.03.29.03.48Z"/>
    <path class="cls-2" d="m418.84,349.52c0,.15-.05.26-.15.35s-.22.14-.38.18-.37.06-.64.06c-.25,0-.47-.02-.65-.06s-.32-.1-.41-.18c-.1-.08-.15-.2-.15-.35v-2.26c-.91.98-1.91,1.74-3,2.28s-2.23.8-3.41.8c-1.06,0-2.01-.14-2.85-.41-.84-.28-1.55-.67-2.13-1.18s-1.03-1.14-1.34-1.87c-.31-.73-.47-1.55-.47-2.46,0-1.12.23-2.09.69-2.92.46-.83,1.12-1.51,1.97-2.07.85-.55,1.87-.96,3.06-1.24s2.52-.41,3.98-.41h3.22v-1.74c0-.86-.09-1.63-.27-2.29-.18-.66-.47-1.22-.87-1.66-.4-.45-.92-.78-1.56-1-.64-.22-1.42-.34-2.35-.34s-1.7.11-2.41.32-1.34.46-1.88.73c-.54.27-.98.51-1.33.73s-.6.32-.75.32c-.09,0-.17-.01-.25-.04-.07-.03-.14-.09-.19-.17-.05-.08-.09-.19-.11-.31-.02-.13-.03-.28-.03-.46,0-.31.02-.56.07-.75.04-.19.16-.37.35-.56s.52-.41.99-.66c.48-.25,1.02-.49,1.64-.7.62-.22,1.28-.39,2-.53s1.43-.2,2.14-.2c1.38,0,2.55.17,3.51.5.95.33,1.72.82,2.31,1.44.59.63,1.01,1.4,1.26,2.31.25.92.38,1.96.38,3.12v13.67Zm-2.66-9.54h-3.69c-1.07,0-2.01.1-2.81.29-.8.19-1.47.48-2.01.85s-.94.82-1.2,1.34c-.26.52-.39,1.12-.39,1.79,0,1.16.37,2.09,1.11,2.78.74.69,1.78,1.04,3.12,1.04,1.06,0,2.04-.27,2.96-.82.92-.54,1.89-1.38,2.92-2.51v-4.76Z"/>
    <path class="cls-2" d="m437.43,330.33c0,.22,0,.41-.02.57s-.04.28-.08.38-.08.17-.13.22c-.05.05-.12.08-.21.08-.13,0-.29-.03-.47-.1s-.39-.14-.62-.21c-.24-.08-.5-.15-.78-.21-.28-.07-.6-.1-.94-.1-.4,0-.8.09-1.18.26-.39.17-.79.45-1.22.83s-.87.88-1.34,1.51c-.47.62-.99,1.39-1.55,2.3v13.67c0,.09-.02.17-.07.25s-.12.13-.21.18c-.1.04-.23.08-.4.11-.17.03-.39.04-.66.04s-.47-.01-.64-.04c-.17-.03-.31-.07-.41-.11-.1-.04-.18-.1-.21-.18s-.06-.16-.06-.25v-20.22c0-.09.02-.17.06-.25s.11-.14.21-.19c.1-.05.23-.09.39-.11s.36-.03.61-.03.46.01.63.03c.16.02.29.06.38.11.09.05.15.12.19.19s.06.16.06.25v3.2c.58-.85,1.12-1.53,1.61-2.06.49-.52.96-.93,1.41-1.22.45-.29.88-.49,1.31-.59.42-.1.86-.16,1.31-.16.19,0,.42.01.67.03s.53.06.82.12c.29.06.55.13.78.21.23.08.39.16.48.22.09.07.15.13.18.18.03.05.06.12.08.2.02.08.04.19.04.33,0,.14.01.32.01.55Z"/>
    <path class="cls-2" d="m451.72,348.31c0,.31-.03.57-.08.76s-.13.35-.25.46c-.11.11-.28.22-.49.31s-.47.18-.75.25c-.28.07-.58.12-.89.16-.31.04-.62.06-.92.06-1,0-1.85-.13-2.55-.4-.7-.27-1.27-.67-1.72-1.22-.45-.54-.77-1.23-.97-2.07-.2-.83-.3-1.82-.3-2.95v-12.58h-3.02c-.21,0-.37-.09-.49-.28-.12-.19-.18-.47-.18-.84,0-.19.01-.36.04-.5.03-.14.07-.26.13-.36s.13-.17.21-.21c.08-.04.18-.07.28-.07h3.02v-4.96c0-.09.02-.17.06-.25s.11-.14.21-.19c.1-.05.24-.09.41-.11.17-.02.38-.03.64-.03.27,0,.49.01.66.03s.31.06.4.11c.1.05.17.12.21.19.04.07.07.16.07.25v4.96h5.58c.1,0,.2.02.28.07.08.04.15.12.21.21s.1.22.13.36c.03.14.04.31.04.5,0,.37-.06.65-.19.84-.13.19-.29.28-.48.28h-5.58v12.22c0,1.53.22,2.7.66,3.51.44.8,1.24,1.21,2.4,1.21.36,0,.68-.04.97-.11.29-.07.55-.16.77-.25.22-.09.41-.17.57-.25.16-.07.29-.11.41-.11.07,0,.14.01.2.04.06.03.11.09.14.17s.07.19.09.31c.02.13.03.29.03.48Z"/>
    <path class="cls-2" d="m473.33,349.52c0,.09-.02.17-.06.25-.04.07-.11.13-.21.18s-.24.08-.4.11c-.16.03-.36.04-.6.04-.27,0-.48-.01-.65-.04-.16-.03-.29-.07-.38-.11-.09-.04-.15-.1-.19-.18s-.06-.16-.06-.25v-2.86c-1.16,1.3-2.3,2.23-3.41,2.81-1.11.58-2.21.87-3.32.87-1.33,0-2.44-.22-3.35-.67-.91-.45-1.64-1.05-2.2-1.82-.56-.77-.96-1.66-1.21-2.67-.25-1.01-.37-2.23-.37-3.66v-12.22c0-.09.02-.17.06-.25s.11-.14.21-.19c.1-.05.24-.09.41-.11.17-.02.38-.03.64-.03.27,0,.49.01.66.03s.31.06.4.11c.1.05.17.12.21.19.04.07.07.16.07.25v11.97c0,1.25.1,2.27.29,3.06.19.79.48,1.46.87,2.02.39.56.88.99,1.49,1.3.6.31,1.31.46,2.11.46,1.03,0,2.05-.36,3.07-1.09,1.02-.73,2.1-1.8,3.25-3.22v-14.5c0-.09.02-.17.06-.25.04-.07.11-.14.21-.19.1-.05.24-.09.41-.11s.39-.03.66-.03c.25,0,.47.01.64.03s.3.06.4.11c.1.05.17.12.21.19s.07.16.07.25v20.22Z"/>
    <path class="cls-2" d="m498.44,339.11c0,1.73-.19,3.28-.57,4.67s-.94,2.56-1.68,3.53c-.74.97-1.65,1.72-2.74,2.25-1.09.53-2.33.79-3.73.79-.6,0-1.15-.06-1.68-.19s-1.03-.32-1.53-.59c-.5-.27-1-.6-1.5-1-.5-.4-1.02-.89-1.57-1.45v10.43c0,.09-.02.17-.07.25s-.12.14-.21.19c-.1.05-.23.09-.4.11-.17.02-.39.03-.66.03s-.47-.01-.64-.03-.31-.06-.41-.11c-.1-.05-.18-.12-.21-.19s-.06-.16-.06-.25v-28.24c0-.1.02-.19.06-.27s.1-.13.2-.18.22-.08.38-.1.35-.03.57-.03.41.01.56.03c.15.02.28.06.38.1.1.04.18.1.22.18s.07.16.07.27v2.93c.62-.64,1.22-1.2,1.79-1.66.57-.47,1.13-.86,1.7-1.17.57-.31,1.15-.54,1.74-.69s1.23-.22,1.9-.22c1.46,0,2.7.28,3.73.84,1.03.56,1.87,1.32,2.51,2.29s1.12,2.1,1.41,3.38c.29,1.29.44,2.66.44,4.12Zm-2.79.42c0-1.13-.09-2.22-.27-3.27-.18-1.05-.48-1.98-.9-2.8-.42-.82-.99-1.47-1.7-1.97-.71-.49-1.6-.74-2.67-.74-.54,0-1.06.08-1.58.22-.51.15-1.04.39-1.58.74s-1.09.79-1.68,1.33c-.58.54-1.19,1.22-1.83,2.02v8.8c1.12,1.36,2.18,2.39,3.21,3.12s2.09,1.08,3.21,1.08c1.03,0,1.91-.25,2.65-.75s1.34-1.15,1.8-1.97.8-1.73,1.02-2.75c.22-1.02.32-2.04.32-3.07Z"/>
    <path class="cls-2" d="m524.64,348.31c0,.31-.03.57-.08.76s-.13.35-.25.46c-.11.11-.28.22-.49.31s-.47.18-.75.25c-.28.07-.58.12-.89.16-.31.04-.62.06-.92.06-1,0-1.85-.13-2.55-.4-.7-.27-1.27-.67-1.72-1.22-.45-.54-.77-1.23-.97-2.07-.2-.83-.3-1.82-.3-2.95v-12.58h-3.02c-.21,0-.37-.09-.49-.28-.12-.19-.18-.47-.18-.84,0-.19.01-.36.04-.5.03-.14.07-.26.13-.36s.13-.17.21-.21c.08-.04.18-.07.28-.07h3.02v-4.96c0-.09.02-.17.06-.25s.11-.14.21-.19c.1-.05.24-.09.41-.11.17-.02.38-.03.64-.03.27,0,.49.01.66.03s.31.06.4.11c.1.05.17.12.21.19.04.07.07.16.07.25v4.96h5.58c.1,0,.2.02.28.07.08.04.15.12.21.21s.1.22.13.36c.03.14.04.31.04.5,0,.37-.06.65-.19.84-.13.19-.29.28-.48.28h-5.58v12.22c0,1.53.22,2.7.66,3.51.44.8,1.24,1.21,2.4,1.21.36,0,.68-.04.97-.11.29-.07.55-.16.77-.25.22-.09.41-.17.57-.25.16-.07.29-.11.41-.11.07,0,.14.01.2.04.06.03.11.09.14.17s.07.19.09.31c.02.13.03.29.03.48Z"/>
    <path class="cls-2" d="m547.38,339.2c0,1.61-.21,3.09-.63,4.45s-1.04,2.53-1.87,3.53c-.83,1-1.86,1.78-3.09,2.33s-2.67.84-4.31.84-2.96-.25-4.14-.75c-1.18-.5-2.17-1.21-2.97-2.14s-1.39-2.06-1.79-3.38c-.39-1.33-.59-2.82-.59-4.49s.2-3.09.61-4.45c.41-1.35,1.03-2.53,1.85-3.52.83-.99,1.86-1.76,3.09-2.31,1.24-.55,2.68-.83,4.33-.83s2.96.25,4.14.74c1.18.49,2.17,1.2,2.96,2.13s1.39,2.06,1.79,3.38c.4,1.33.6,2.82.6,4.47Zm-2.81.25c0-1.15-.11-2.24-.34-3.28-.22-1.04-.6-1.96-1.12-2.76-.52-.8-1.22-1.43-2.1-1.9-.88-.47-1.97-.7-3.28-.7-1.21,0-2.25.22-3.13.65-.88.43-1.6,1.03-2.16,1.8-.56.77-.97,1.67-1.24,2.71-.27,1.04-.4,2.17-.4,3.37s.11,2.27.33,3.32.6,1.97,1.12,2.76c.52.79,1.22,1.42,2.1,1.88s1.97.69,3.28.69c1.21,0,2.25-.22,3.13-.65.88-.43,1.6-1.03,2.16-1.79.56-.76.97-1.66,1.24-2.7.27-1.04.4-2.17.4-3.4Z"/>
    <path class="cls-2" d="m585.09,324.7c0,.19-.01.37-.04.54-.03.16-.07.3-.12.41-.05.11-.12.2-.2.26-.08.06-.17.09-.26.09-.18,0-.47-.15-.88-.45-.41-.3-.96-.62-1.64-.97-.69-.35-1.52-.67-2.49-.97s-2.13-.45-3.47-.45c-1.71,0-3.24.32-4.58.95-1.34.63-2.47,1.5-3.4,2.6-.92,1.1-1.63,2.41-2.11,3.92-.48,1.51-.73,3.14-.73,4.88,0,1.95.28,3.69.83,5.22.55,1.53,1.31,2.81,2.29,3.86s2.14,1.85,3.49,2.4c1.35.55,2.82.83,4.41.83,1.03,0,2.07-.13,3.13-.38,1.06-.25,2.05-.64,2.97-1.16v-9.36h-7.37c-.24,0-.42-.1-.54-.31-.12-.21-.18-.51-.18-.89,0-.21.01-.39.04-.55.03-.16.07-.28.13-.38s.13-.17.22-.22c.09-.05.19-.08.31-.08h8.85c.13,0,.28.02.42.07.15.04.29.12.41.22.13.1.23.25.3.44.07.19.11.41.11.68v10.75c0,.36-.06.66-.17.92-.11.25-.37.5-.77.73-.4.23-.94.48-1.61.76-.67.28-1.36.51-2.08.69-.71.19-1.43.33-2.16.42s-1.43.15-2.13.15c-2.19,0-4.14-.35-5.86-1.06-1.72-.71-3.17-1.71-4.36-2.99-1.18-1.29-2.09-2.82-2.71-4.6-.62-1.78-.94-3.74-.94-5.89s.34-4.3,1.02-6.16c.68-1.85,1.63-3.44,2.86-4.75,1.23-1.31,2.7-2.33,4.41-3.05,1.71-.72,3.6-1.08,5.67-1.08,1.04,0,2.03.1,2.96.29.93.19,1.77.43,2.51.7.74.28,1.38.57,1.9.89s.88.57,1.06.76c.19.19.31.37.38.55.07.18.1.44.1.78Z"/>
    <path class="cls-2" d="m608.88,338.37c0,.54-.14.91-.42,1.11-.28.2-.56.3-.83.3h-13.78c0,1.25.12,2.38.37,3.4.25,1.01.65,1.88,1.22,2.6.57.72,1.3,1.28,2.21,1.66s2.03.58,3.35.58c.94,0,1.78-.08,2.52-.25.74-.16,1.39-.35,1.93-.55.54-.2.99-.38,1.34-.55.35-.16.6-.25.75-.25.09,0,.17.02.25.07.07.04.13.12.18.21.04.1.08.22.1.37.02.15.03.33.03.56,0,.1,0,.2-.02.3-.01.1-.03.19-.06.27s-.06.16-.1.23c-.04.08-.1.15-.18.22s-.31.21-.69.39c-.39.19-.89.37-1.52.56-.62.19-1.35.35-2.18.5-.83.15-1.72.22-2.67.22-1.56,0-2.95-.24-4.16-.7-1.21-.47-2.22-1.16-3.04-2.08-.82-.92-1.44-2.05-1.87-3.41s-.64-2.93-.64-4.71.22-3.25.66-4.6,1.07-2.51,1.89-3.45c.82-.95,1.81-1.67,2.96-2.17,1.15-.5,2.44-.75,3.85-.75,1.52,0,2.82.25,3.89.76s1.95,1.19,2.65,2.04c.69.86,1.2,1.85,1.52,2.98s.48,2.32.48,3.57v.54Zm-2.75-.78c.04-2.14-.45-3.82-1.47-5.03-1.03-1.21-2.52-1.81-4.49-1.81-1.01,0-1.9.19-2.67.57-.77.38-1.42.88-1.94,1.51-.53.62-.93,1.35-1.22,2.18-.28.83-.45,1.69-.49,2.58h12.29Z"/>
    <path class="cls-2" d="m626.22,330.33c0,.22,0,.41-.02.57s-.04.28-.08.38-.08.17-.13.22c-.05.05-.12.08-.21.08-.13,0-.29-.03-.47-.1s-.39-.14-.62-.21c-.24-.08-.5-.15-.78-.21-.28-.07-.6-.1-.94-.1-.4,0-.8.09-1.18.26-.39.17-.79.45-1.22.83s-.87.88-1.34,1.51c-.47.62-.99,1.39-1.55,2.3v13.67c0,.09-.02.17-.07.25s-.12.13-.21.18c-.1.04-.23.08-.4.11-.17.03-.39.04-.66.04s-.47-.01-.64-.04c-.17-.03-.31-.07-.41-.11-.1-.04-.18-.1-.21-.18s-.06-.16-.06-.25v-20.22c0-.09.02-.17.06-.25s.11-.14.21-.19c.1-.05.23-.09.39-.11s.36-.03.61-.03.46.01.63.03c.16.02.29.06.38.11.09.05.15.12.19.19s.06.16.06.25v3.2c.58-.85,1.12-1.53,1.61-2.06.49-.52.96-.93,1.41-1.22.45-.29.88-.49,1.31-.59.42-.1.86-.16,1.31-.16.19,0,.42.01.67.03s.53.06.82.12c.29.06.55.13.78.21.23.08.39.16.48.22.09.07.15.13.18.18.03.05.06.12.08.2.02.08.04.19.04.33,0,.14.01.32.01.55Z"/>
    <path class="cls-2" d="m659.6,349.52c0,.09-.02.17-.07.25-.04.07-.12.13-.21.18s-.23.08-.4.11c-.17.03-.38.04-.64.04-.27,0-.49-.01-.66-.04-.17-.03-.31-.07-.41-.11-.1-.04-.18-.1-.21-.18s-.06-.16-.06-.25v-12.44c0-.95-.09-1.82-.26-2.6-.17-.78-.44-1.45-.8-2.01-.36-.56-.83-.99-1.38-1.29-.56-.31-1.22-.46-1.98-.46-.94,0-1.89.37-2.85,1.09s-2.01,1.8-3.16,3.22v14.5c0,.09-.02.17-.07.25-.04.07-.12.13-.21.18s-.23.08-.4.11c-.17.03-.38.04-.64.04s-.47-.01-.64-.04c-.17-.03-.31-.07-.41-.11s-.17-.1-.21-.18-.06-.16-.06-.25v-12.44c0-.95-.09-1.82-.27-2.6-.18-.78-.45-1.45-.82-2.01-.37-.56-.83-.99-1.38-1.29-.56-.31-1.22-.46-1.98-.46-.94,0-1.89.37-2.85,1.09-.96.73-2.01,1.8-3.14,3.22v14.5c0,.09-.02.17-.07.25s-.12.13-.21.18c-.1.04-.23.08-.4.11-.17.03-.39.04-.66.04s-.47-.01-.64-.04c-.17-.03-.31-.07-.41-.11-.1-.04-.18-.1-.21-.18s-.06-.16-.06-.25v-20.22c0-.09.02-.17.06-.25s.11-.14.21-.19c.1-.05.23-.09.39-.11s.36-.03.61-.03.46.01.63.03c.16.02.29.06.38.11.09.05.15.12.19.19s.06.16.06.25v2.86c1.16-1.3,2.26-2.23,3.31-2.82,1.04-.58,2.08-.87,3.11-.87.85,0,1.6.1,2.27.3.66.2,1.25.48,1.75.85.51.37.94.8,1.3,1.31.36.51.65,1.07.87,1.68.7-.77,1.36-1.43,1.98-1.96.62-.53,1.21-.95,1.76-1.27s1.1-.55,1.62-.69c.52-.14,1.03-.21,1.54-.21,1.27,0,2.33.22,3.21.67.87.45,1.57,1.05,2.1,1.81.53.76.91,1.65,1.14,2.66.23,1.01.35,2.08.35,3.22v12.69Z"/>
    <path class="cls-2" d="m681.13,349.52c0,.15-.05.26-.15.35s-.22.14-.38.18-.37.06-.64.06c-.25,0-.47-.02-.65-.06s-.32-.1-.41-.18c-.1-.08-.15-.2-.15-.35v-2.26c-.91.98-1.91,1.74-3,2.28s-2.23.8-3.41.8c-1.06,0-2.01-.14-2.85-.41-.84-.28-1.55-.67-2.13-1.18s-1.03-1.14-1.34-1.87c-.31-.73-.47-1.55-.47-2.46,0-1.12.23-2.09.69-2.92.46-.83,1.12-1.51,1.97-2.07.85-.55,1.87-.96,3.06-1.24s2.52-.41,3.98-.41h3.22v-1.74c0-.86-.09-1.63-.27-2.29-.18-.66-.47-1.22-.87-1.66-.4-.45-.92-.78-1.56-1-.64-.22-1.42-.34-2.35-.34s-1.7.11-2.41.32-1.34.46-1.88.73c-.54.27-.98.51-1.33.73s-.6.32-.75.32c-.09,0-.17-.01-.25-.04-.07-.03-.14-.09-.19-.17-.05-.08-.09-.19-.11-.31-.02-.13-.03-.28-.03-.46,0-.31.02-.56.07-.75.04-.19.16-.37.35-.56s.52-.41.99-.66c.48-.25,1.02-.49,1.64-.7.62-.22,1.28-.39,2-.53s1.43-.2,2.14-.2c1.38,0,2.55.17,3.51.5.95.33,1.72.82,2.31,1.44.59.63,1.01,1.4,1.26,2.31.25.92.38,1.96.38,3.12v13.67Zm-2.66-9.54h-3.69c-1.07,0-2.01.1-2.81.29-.8.19-1.47.48-2.01.85s-.94.82-1.2,1.34c-.26.52-.39,1.12-.39,1.79,0,1.16.37,2.09,1.11,2.78.74.69,1.78,1.04,3.12,1.04,1.06,0,2.04-.27,2.96-.82.92-.54,1.89-1.38,2.92-2.51v-4.76Z"/>
    <path class="cls-2" d="m704.9,349.52c0,.09-.02.17-.07.25-.04.07-.12.13-.21.18s-.23.08-.4.11c-.17.03-.38.04-.64.04-.27,0-.49-.01-.66-.04-.17-.03-.31-.07-.4-.11s-.17-.1-.21-.18c-.04-.07-.07-.16-.07-.25v-12c0-1.25-.1-2.27-.29-3.05-.19-.78-.48-1.45-.87-2.01-.39-.56-.88-.99-1.49-1.29-.6-.31-1.31-.46-2.11-.46-1.03,0-2.05.37-3.08,1.09-1.03.73-2.11,1.8-3.24,3.22v14.5c0,.09-.02.17-.07.25s-.12.13-.21.18c-.1.04-.23.08-.4.11-.17.03-.39.04-.66.04s-.47-.01-.64-.04c-.17-.03-.31-.07-.41-.11-.1-.04-.18-.1-.21-.18s-.06-.16-.06-.25v-20.22c0-.09.02-.17.06-.25s.11-.14.21-.19c.1-.05.23-.09.39-.11s.36-.03.61-.03.46.01.63.03c.16.02.29.06.38.11.09.05.15.12.19.19s.06.16.06.25v2.86c1.16-1.3,2.3-2.23,3.42-2.82,1.12-.58,2.23-.87,3.33-.87,1.33,0,2.44.22,3.35.67.91.45,1.64,1.05,2.2,1.81.56.76.96,1.65,1.21,2.66.25,1.01.37,2.23.37,3.66v12.24Z"/>
    <path class="cls-2" d="m391,365.97c0,.19-.01.37-.04.54-.03.16-.07.3-.12.41-.05.11-.12.2-.2.26s-.17.09-.26.09c-.18,0-.47-.15-.88-.45-.41-.3-.96-.62-1.64-.97-.69-.35-1.52-.67-2.49-.97s-2.13-.45-3.47-.45c-1.71,0-3.24.32-4.58.95-1.34.63-2.47,1.5-3.4,2.6-.92,1.1-1.63,2.41-2.11,3.92-.48,1.51-.73,3.14-.73,4.88,0,1.95.28,3.69.83,5.22.55,1.53,1.31,2.81,2.29,3.87.98,1.05,2.14,1.85,3.49,2.4s2.82.83,4.41.83c1.03,0,2.07-.13,3.13-.38,1.06-.25,2.05-.64,2.97-1.16v-9.36h-7.37c-.24,0-.42-.1-.54-.31-.12-.21-.18-.51-.18-.89,0-.21.01-.39.04-.55.03-.16.07-.28.13-.38s.13-.17.22-.22c.09-.05.19-.08.31-.08h8.85c.13,0,.28.02.42.07.15.04.29.12.41.22.13.1.23.25.3.44.07.19.11.41.11.68v10.75c0,.36-.06.66-.17.92-.11.25-.37.5-.77.73-.4.23-.94.48-1.61.76s-1.36.51-2.08.69c-.71.19-1.43.33-2.16.42-.72.1-1.43.14-2.13.14-2.19,0-4.14-.35-5.86-1.06-1.72-.71-3.17-1.71-4.36-2.99-1.18-1.29-2.09-2.82-2.71-4.6-.62-1.78-.94-3.74-.94-5.89s.34-4.3,1.02-6.15c.68-1.85,1.63-3.44,2.86-4.75,1.23-1.31,2.7-2.33,4.41-3.05,1.71-.72,3.6-1.08,5.67-1.08,1.04,0,2.03.1,2.96.29s1.77.43,2.51.7c.74.28,1.38.57,1.9.89s.88.57,1.06.76c.19.19.31.37.38.55.07.18.1.44.1.78Z"/>
    <path class="cls-2" d="m409.52,371.6c0,.22,0,.41-.02.57-.01.16-.04.28-.08.38-.04.1-.08.17-.13.22s-.12.08-.21.08c-.13,0-.29-.03-.47-.1-.18-.07-.39-.14-.62-.21-.24-.07-.5-.15-.78-.21-.28-.07-.6-.1-.94-.1-.4,0-.8.09-1.18.26-.39.17-.79.45-1.22.83s-.87.88-1.34,1.51c-.47.63-.99,1.39-1.55,2.3v13.67c0,.09-.02.17-.07.25-.04.08-.12.13-.21.18-.1.04-.23.08-.4.11-.17.03-.39.04-.66.04s-.47-.02-.64-.04c-.17-.03-.31-.07-.41-.11-.1-.04-.18-.1-.21-.18-.04-.07-.06-.16-.06-.25v-20.22c0-.09.02-.17.06-.25.04-.07.11-.14.21-.19.1-.05.23-.09.39-.11.16-.02.36-.03.61-.03s.46.01.63.03c.16.02.29.06.38.11.09.05.15.12.19.19.04.08.06.16.06.25v3.19c.58-.85,1.12-1.53,1.61-2.05.49-.52.96-.93,1.41-1.22.45-.29.88-.49,1.31-.59.42-.1.86-.16,1.31-.16.19,0,.42.01.67.03s.53.06.82.12c.29.06.55.13.78.21.23.08.39.16.48.22.09.07.15.13.18.18.03.05.06.12.08.2s.04.19.04.33c0,.14.01.32.01.55Z"/>
    <path class="cls-2" d="m431.08,380.47c0,1.61-.21,3.09-.63,4.45-.42,1.36-1.04,2.53-1.87,3.53-.83,1-1.86,1.78-3.09,2.33s-2.67.84-4.31.84-2.96-.25-4.14-.75c-1.18-.5-2.17-1.21-2.97-2.14s-1.39-2.06-1.79-3.38c-.39-1.33-.59-2.82-.59-4.49s.2-3.09.61-4.45c.41-1.36,1.03-2.53,1.85-3.52.83-.99,1.86-1.76,3.09-2.31,1.24-.55,2.68-.83,4.33-.83s2.96.25,4.14.74c1.18.49,2.17,1.2,2.96,2.13s1.39,2.06,1.79,3.38c.4,1.33.6,2.81.6,4.47Zm-2.81.25c0-1.15-.11-2.24-.34-3.28-.22-1.04-.6-1.96-1.12-2.76-.52-.8-1.22-1.43-2.1-1.9-.88-.47-1.97-.7-3.28-.7-1.21,0-2.25.22-3.13.65-.88.43-1.6,1.03-2.16,1.8-.56.77-.97,1.67-1.24,2.71-.27,1.04-.4,2.17-.4,3.37s.11,2.27.33,3.32c.22,1.05.6,1.97,1.12,2.76.52.79,1.22,1.42,2.1,1.88.88.46,1.97.69,3.28.69,1.21,0,2.25-.22,3.13-.65.88-.43,1.6-1.03,2.16-1.79s.97-1.66,1.24-2.7c.27-1.04.4-2.17.4-3.4Z"/>
    <path class="cls-2" d="m451.17,387.79c0,.18,0,.34-.02.48s-.04.26-.07.37c-.03.1-.07.2-.12.28-.05.08-.18.22-.37.41s-.52.44-.97.74-.96.56-1.53.78c-.57.22-1.18.41-1.83.55s-1.33.21-2.03.21c-1.4,0-2.64-.23-3.72-.7-1.08-.47-1.99-1.16-2.71-2.08s-1.28-2.04-1.66-3.37-.57-2.87-.57-4.61c0-1.97.23-3.65.7-5.05.47-1.4,1.11-2.55,1.93-3.44s1.78-1.55,2.87-1.98c1.09-.42,2.27-.64,3.52-.64.67,0,1.31.06,1.92.19.61.13,1.17.29,1.69.5.51.21.97.45,1.37.71.4.27.7.5.88.68s.31.33.38.42c.07.1.12.21.16.32s.06.25.08.39c.01.14.02.31.02.5,0,.43-.06.73-.19.9-.13.17-.26.26-.41.26-.21,0-.47-.13-.77-.4-.31-.27-.7-.56-1.17-.88-.48-.32-1.05-.61-1.73-.88-.68-.27-1.49-.4-2.42-.4-1.94,0-3.43.74-4.48,2.23s-1.58,3.64-1.58,6.46c0,1.42.14,2.66.42,3.72.28,1.07.69,1.95,1.22,2.66.53.71,1.17,1.24,1.93,1.59.76.35,1.62.52,2.57.52.89,0,1.68-.14,2.37-.42.68-.28,1.28-.6,1.79-.94.51-.34.93-.66,1.26-.94.33-.28.58-.42.75-.42.09,0,.17.03.23.08.07.05.12.13.17.25.04.11.08.25.1.4.02.16.03.34.03.55Z"/>
    <path class="cls-2" d="m472.99,379.64c0,.54-.14.9-.42,1.11s-.56.3-.83.3h-13.78c0,1.25.12,2.38.37,3.4.25,1.01.65,1.88,1.22,2.6.57.72,1.3,1.28,2.21,1.66.91.39,2.03.58,3.35.58.94,0,1.78-.08,2.52-.25.74-.16,1.39-.35,1.93-.55s.99-.38,1.34-.55c.35-.16.6-.25.75-.25.09,0,.17.02.25.07.07.04.13.12.18.21s.08.22.1.37c.02.15.03.33.03.56,0,.1,0,.21-.02.3s-.03.19-.06.27c-.02.08-.06.16-.1.24s-.1.15-.18.22c-.07.08-.31.21-.69.39-.39.19-.89.37-1.52.56-.62.19-1.35.35-2.18.5-.83.15-1.72.22-2.67.22-1.56,0-2.95-.23-4.16-.7-1.21-.47-2.22-1.16-3.04-2.08s-1.44-2.05-1.87-3.41c-.42-1.35-.64-2.93-.64-4.71s.22-3.25.66-4.6c.44-1.35,1.07-2.5,1.89-3.45.82-.95,1.81-1.67,2.96-2.17s2.44-.75,3.85-.75c1.52,0,2.82.25,3.89.76,1.07.51,1.95,1.19,2.65,2.04.69.86,1.2,1.85,1.52,2.98.32,1.13.48,2.32.48,3.58v.54Zm-2.75-.78c.04-2.14-.45-3.82-1.47-5.03s-2.52-1.81-4.49-1.81c-1.01,0-1.9.19-2.67.57-.77.38-1.42.88-1.94,1.51-.53.63-.93,1.35-1.22,2.18-.28.83-.45,1.69-.49,2.58h12.29Z"/>
    <path class="cls-2" d="m490.33,371.6c0,.22,0,.41-.02.57-.01.16-.04.28-.08.38-.04.1-.08.17-.13.22s-.12.08-.21.08c-.13,0-.29-.03-.47-.1-.18-.07-.39-.14-.62-.21-.24-.07-.5-.15-.78-.21-.28-.07-.6-.1-.94-.1-.4,0-.8.09-1.18.26-.39.17-.79.45-1.22.83s-.87.88-1.34,1.51c-.47.63-.99,1.39-1.55,2.3v13.67c0,.09-.02.17-.07.25-.04.08-.12.13-.21.18-.1.04-.23.08-.4.11-.17.03-.39.04-.66.04s-.47-.02-.64-.04c-.17-.03-.31-.07-.41-.11-.1-.04-.18-.1-.21-.18-.04-.07-.06-.16-.06-.25v-20.22c0-.09.02-.17.06-.25.04-.07.11-.14.21-.19.1-.05.23-.09.39-.11.16-.02.36-.03.61-.03s.46.01.63.03c.16.02.29.06.38.11.09.05.15.12.19.19.04.08.06.16.06.25v3.19c.58-.85,1.12-1.53,1.61-2.05.49-.52.96-.93,1.41-1.22.45-.29.88-.49,1.31-.59.42-.1.86-.16,1.31-.16.19,0,.42.01.67.03s.53.06.82.12c.29.06.55.13.78.21.23.08.39.16.48.22.09.07.15.13.18.18.03.05.06.12.08.2s.04.19.04.33c0,.14.01.32.01.55Z"/>
    <path class="cls-2" d="m502.97,391.23l-2.82,7.57c-.07.16-.23.3-.47.41s-.62.17-1.14.17c-.27,0-.49-.02-.67-.04-.18-.03-.32-.09-.41-.17-.1-.08-.15-.19-.17-.31s.01-.28.09-.46l2.86-7.17c-.12-.04-.22-.12-.31-.22-.09-.1-.15-.21-.18-.31l-7.35-19.73c-.07-.21-.11-.38-.11-.5s.04-.23.12-.3c.08-.07.22-.12.4-.14.19-.02.44-.03.75-.03s.59.01.78.03c.19.02.35.06.46.1.11.04.19.1.25.18.05.08.1.16.15.27l6.32,17.65h.09l6.21-17.65c.07-.21.17-.35.3-.41.13-.07.29-.11.5-.13.21-.02.46-.03.76-.03s.52.02.7.04c.19.03.32.08.41.16.09.08.13.18.13.3s-.04.29-.11.48l-7.55,20.26Z"/>
    <path class="cls-2" d="m543.63,363.58c0,.19-.01.37-.04.51-.03.15-.08.27-.13.37-.06.1-.13.17-.22.22-.09.05-.19.08-.29.08h-8.62v26.03c0,.09-.02.17-.07.25-.04.08-.12.13-.22.18-.1.04-.25.08-.42.11-.18.03-.39.04-.65.04s-.47-.02-.65-.04c-.18-.03-.32-.07-.42-.11-.1-.04-.18-.1-.22-.18-.04-.07-.07-.16-.07-.25v-26.03h-8.62c-.12,0-.22-.03-.3-.08-.08-.05-.15-.13-.21-.22-.06-.1-.1-.22-.13-.37-.03-.15-.04-.32-.04-.51,0-.21.01-.39.04-.55.03-.16.07-.29.13-.39s.13-.18.21-.23.18-.08.3-.08h19.97c.1,0,.2.03.29.08.09.05.16.13.22.23s.1.23.13.39c.03.16.04.34.04.55Z"/>
    <path class="cls-2" d="m555.83,371.6c0,.22,0,.41-.02.57-.01.16-.04.28-.08.38-.04.1-.08.17-.13.22s-.12.08-.21.08c-.13,0-.29-.03-.47-.1-.18-.07-.39-.14-.62-.21-.24-.07-.5-.15-.78-.21-.28-.07-.6-.1-.94-.1-.4,0-.8.09-1.18.26-.39.17-.79.45-1.22.83s-.87.88-1.34,1.51c-.47.63-.99,1.39-1.55,2.3v13.67c0,.09-.02.17-.07.25-.04.08-.12.13-.21.18-.1.04-.23.08-.4.11-.17.03-.39.04-.66.04s-.47-.02-.64-.04c-.17-.03-.31-.07-.41-.11-.1-.04-.18-.1-.21-.18-.04-.07-.06-.16-.06-.25v-20.22c0-.09.02-.17.06-.25.04-.07.11-.14.21-.19.1-.05.23-.09.39-.11.16-.02.36-.03.61-.03s.46.01.63.03c.16.02.29.06.38.11.09.05.15.12.19.19.04.08.06.16.06.25v3.19c.58-.85,1.12-1.53,1.61-2.05.49-.52.96-.93,1.41-1.22.45-.29.88-.49,1.31-.59.42-.1.86-.16,1.31-.16.19,0,.42.01.67.03s.53.06.82.12c.29.06.55.13.78.21.23.08.39.16.48.22.09.07.15.13.18.18.03.05.06.12.08.2s.04.19.04.33c0,.14.01.32.01.55Z"/>
    <path class="cls-2" d="m573.66,390.79c0,.15-.05.26-.15.35-.1.08-.22.14-.38.18s-.37.06-.64.06c-.25,0-.47-.02-.65-.06s-.32-.1-.41-.18c-.1-.08-.15-.2-.15-.35v-2.26c-.91.98-1.91,1.74-3,2.28s-2.23.8-3.41.8c-1.06,0-2.01-.14-2.85-.41-.84-.28-1.55-.67-2.13-1.18-.58-.51-1.03-1.14-1.34-1.87-.31-.73-.47-1.55-.47-2.46,0-1.12.23-2.09.69-2.92.46-.83,1.12-1.52,1.97-2.07.85-.55,1.87-.96,3.06-1.24s2.52-.41,3.98-.41h3.22v-1.74c0-.86-.09-1.63-.27-2.29-.18-.66-.47-1.22-.87-1.67-.4-.45-.92-.78-1.56-1-.64-.22-1.42-.33-2.35-.33s-1.7.11-2.41.32-1.34.46-1.88.73c-.54.27-.98.51-1.33.73s-.6.32-.75.32c-.09,0-.17-.01-.25-.04-.07-.03-.14-.08-.19-.17-.05-.08-.09-.19-.11-.31-.02-.13-.03-.28-.03-.46,0-.31.02-.56.07-.75.04-.19.16-.37.35-.56.19-.19.52-.41.99-.66.48-.25,1.02-.49,1.64-.7.62-.22,1.28-.39,2-.53.71-.13,1.43-.2,2.14-.2,1.38,0,2.55.17,3.51.5.95.33,1.72.82,2.31,1.44.59.62,1.01,1.4,1.26,2.31.25.92.38,1.96.38,3.12v13.67Zm-2.66-9.54h-3.69c-1.07,0-2.01.1-2.81.29-.8.19-1.47.48-2.01.85-.54.37-.94.82-1.2,1.34-.26.52-.39,1.12-.39,1.79,0,1.16.37,2.09,1.11,2.78s1.78,1.04,3.12,1.04c1.06,0,2.04-.27,2.96-.82s1.89-1.38,2.92-2.51v-4.76Z"/>
    <path class="cls-2" d="m597.33,390.79c0,.1-.02.19-.06.27-.04.08-.1.13-.2.18-.1.04-.22.08-.37.1s-.33.03-.56.03c-.24,0-.44-.01-.59-.03s-.28-.06-.38-.1-.17-.1-.22-.18c-.05-.07-.08-.16-.08-.27v-2.9c-1.07,1.16-2.18,2.07-3.33,2.74-1.15.66-2.4.99-3.75.99-1.46,0-2.7-.28-3.73-.85-1.03-.57-1.87-1.33-2.51-2.3-.65-.97-1.12-2.1-1.42-3.41-.3-1.3-.45-2.68-.45-4.14,0-1.71.19-3.26.56-4.64.37-1.38.92-2.55,1.65-3.52s1.63-1.71,2.7-2.23c1.07-.52,2.32-.78,3.73-.78,1.22,0,2.34.27,3.35.82,1.01.54,2.01,1.34,2.99,2.4v-12.18c0-.09.02-.17.06-.25.04-.07.11-.13.21-.18.1-.04.24-.08.41-.11.17-.03.38-.04.64-.04.27,0,.49.01.66.04.17.03.3.07.4.11.1.04.17.1.21.18s.07.16.07.25v30Zm-2.66-14.59c-1.12-1.36-2.19-2.39-3.23-3.11s-2.12-1.07-3.25-1.07c-1.03,0-1.91.25-2.64.74s-1.33,1.14-1.79,1.94-.8,1.71-1,2.73c-.21,1.01-.31,2.04-.31,3.08,0,1.12.09,2.2.27,3.26s.48,2,.92,2.83c.43.83,1,1.49,1.72,1.99.71.5,1.61.75,2.68.75.54,0,1.06-.07,1.56-.22.51-.15,1.03-.39,1.56-.74s1.09-.79,1.66-1.33,1.19-1.22,1.84-2.02v-8.82Z"/>
    <path class="cls-2" d="m621.28,379.64c0,.54-.14.9-.42,1.11s-.56.3-.83.3h-13.78c0,1.25.12,2.38.37,3.4.25,1.01.65,1.88,1.22,2.6.57.72,1.3,1.28,2.21,1.66.91.39,2.03.58,3.35.58.94,0,1.78-.08,2.52-.25.74-.16,1.39-.35,1.93-.55s.99-.38,1.34-.55c.35-.16.6-.25.75-.25.09,0,.17.02.25.07.07.04.13.12.18.21s.08.22.1.37c.02.15.03.33.03.56,0,.1,0,.21-.02.3s-.03.19-.06.27c-.02.08-.06.16-.1.24s-.1.15-.18.22c-.07.08-.31.21-.69.39-.39.19-.89.37-1.52.56-.62.19-1.35.35-2.18.5-.83.15-1.72.22-2.67.22-1.56,0-2.95-.23-4.16-.7-1.21-.47-2.22-1.16-3.04-2.08s-1.44-2.05-1.87-3.41c-.42-1.35-.64-2.93-.64-4.71s.22-3.25.66-4.6c.44-1.35,1.07-2.5,1.89-3.45.82-.95,1.81-1.67,2.96-2.17s2.44-.75,3.85-.75c1.52,0,2.82.25,3.89.76,1.07.51,1.95,1.19,2.65,2.04.69.86,1.2,1.85,1.52,2.98.32,1.13.48,2.32.48,3.58v.54Zm-2.75-.78c.04-2.14-.45-3.82-1.47-5.03s-2.52-1.81-4.49-1.81c-1.01,0-1.9.19-2.67.57-.77.38-1.42.88-1.94,1.51-.53.63-.93,1.35-1.22,2.18-.28.83-.45,1.69-.49,2.58h12.29Z"/>
  </g>
</svg>