<?xml version="1.0" encoding="UTF-8"?>
<svg id="Ebene_1" data-name="Ebene 1" xmlns="http://www.w3.org/2000/svg" viewBox="0 0 841.89 595.28">
  <defs>
    <style>
      .cls-1 {
        fill: #706f6f;
      }

      .cls-1, .cls-2, .cls-3, .cls-4, .cls-5, .cls-6, .cls-7 {
        stroke-width: 0px;
      }

      .cls-2 {
        fill: #dddc00;
      }

      .cls-3 {
        fill: #7bbb4c;
      }

      .cls-4 {
        fill: #fff;
      }

      .cls-5 {
        fill: #f1853b;
      }

      .cls-6 {
        fill: #eb6117;
      }

      .cls-7 {
        fill: #68c2c3;
      }
    </style>
  </defs>
  <path class="cls-2" d="m173.46,218c21.79-21.48,22.16-56.44.81-78.09-12.88-13.07-25.76-26.14-38.64-39.21-13.15,12.96-26.3,25.92-39.46,38.89-21.79,21.48-22.16,56.44-.81,78.09,21.34,21.65,56.31,21.8,78.1.32Z"/>
  <path class="cls-5" d="m319.33,218c21.79-21.48,22.16-56.44.81-78.09-12.88-13.07-25.76-26.14-38.64-39.21-13.15,12.96-26.3,25.92-39.46,38.89-21.79,21.48-22.16,56.44-.81,78.09,21.34,21.65,56.31,21.8,78.1.32Z"/>
  <path class="cls-6" d="m465.2,218c21.79-21.48,22.16-56.44.81-78.09-12.88-13.07-25.76-26.14-38.64-39.21-13.15,12.96-26.3,25.92-39.46,38.89-21.79,21.48-22.16,56.44-.81,78.09,21.34,21.65,56.31,21.8,78.1.32Z"/>
  <path class="cls-7" d="m611.07,218c21.79-21.48,22.16-56.44.81-78.09-12.88-13.07-25.76-26.14-38.64-39.21-13.15,12.96-26.3,25.92-39.46,38.89-21.79,21.48-22.16,56.44-.81,78.09,21.34,21.65,56.31,21.8,78.1.32Z"/>
  <path class="cls-3" d="m756.94,218c21.79-21.48,22.16-56.44.81-78.09-12.88-13.07-25.76-26.14-38.64-39.21-13.15,12.96-26.3,25.92-39.46,38.89-21.79,21.48-22.16,56.44-.81,78.09,21.34,21.65,56.31,21.8,78.1.32Z"/>
  <rect class="cls-1" x="-.2" y="304.72" width="841.83" height="290.36"/>
  <g>
    <path class="cls-2" d="m99.85,413.95c-19.31,19.03-19.64,50.02-.72,69.21,11.42,11.58,22.83,23.16,34.25,34.75,11.66-11.49,23.31-22.98,34.97-34.47,19.31-19.03,19.64-50.02.72-69.21-18.91-19.19-49.9-19.32-69.22-.28Z"/>
    <path class="cls-4" d="m133.25,534.65l-42.57-43.2c-23.46-23.79-23.07-62.36.88-85.96,11.5-11.36,26.72-17.61,42.85-17.61.09,0,.16,0,.25.02,16.24.05,31.47,6.46,42.85,18,23.46,23.81,23.09,62.38-.86,85.98l-43.41,42.76Zm1.16-123.07c-9.88,0-19.18,3.84-26.21,10.78l-.02.02c-14.62,14.41-14.9,37.95-.6,52.45l25.91,26.31,26.56-26.15c14.62-14.41,14.9-37.95.58-52.48-6.89-7.01-16.17-10.9-26.05-10.94h-.16Z"/>
  </g>
  <g>
    <path class="cls-5" d="m250.18,413.95c-19.31,19.03-19.64,50.02-.72,69.21,11.42,11.58,22.83,23.16,34.25,34.75,11.66-11.49,23.31-22.98,34.97-34.47,19.31-19.03,19.64-50.02.72-69.21-18.91-19.19-49.9-19.32-69.22-.28Z"/>
    <path class="cls-4" d="m283.57,534.65l-42.57-43.2c-23.46-23.79-23.07-62.36.88-85.96,11.5-11.36,26.72-17.61,42.85-17.61.09,0,.16,0,.25.02,16.24.05,31.47,6.46,42.85,18,23.46,23.81,23.09,62.38-.86,85.98l-43.41,42.76Zm1.16-123.07c-9.88,0-19.18,3.84-26.21,10.78l-.02.02c-14.62,14.41-14.9,37.95-.6,52.45l25.91,26.31,26.56-26.15c14.62-14.41,14.9-37.95.58-52.48-6.89-7.01-16.17-10.9-26.05-10.94h-.16Z"/>
  </g>
  <g>
    <path class="cls-6" d="m397.05,413.95c-19.31,19.03-19.64,50.02-.72,69.21,11.42,11.58,22.83,23.16,34.25,34.75,11.66-11.49,23.31-22.98,34.97-34.47,19.31-19.03,19.64-50.02.72-69.21-18.91-19.19-49.9-19.32-69.22-.28Z"/>
    <path class="cls-4" d="m430.44,534.65l-42.57-43.2c-23.46-23.79-23.07-62.36.88-85.96,11.5-11.36,26.72-17.61,42.85-17.61.09,0,.16,0,.25.02,16.24.05,31.47,6.46,42.85,18,23.46,23.81,23.09,62.38-.86,85.98l-43.41,42.76Zm1.16-123.07c-9.88,0-19.18,3.84-26.21,10.78l-.02.02c-14.62,14.41-14.9,37.95-.6,52.45l25.91,26.31,26.56-26.15c14.62-14.41,14.9-37.95.58-52.48-6.89-7.01-16.17-10.9-26.05-10.94h-.16Z"/>
  </g>
  <g>
    <path class="cls-7" d="m543.92,413.95c-19.31,19.03-19.64,50.02-.72,69.21,11.42,11.58,22.83,23.16,34.25,34.75,11.66-11.49,23.31-22.98,34.97-34.47,19.31-19.03,19.64-50.02.72-69.21-18.91-19.19-49.9-19.32-69.22-.28Z"/>
    <path class="cls-4" d="m577.31,534.65l-42.57-43.2c-23.46-23.79-23.07-62.36.88-85.96,11.5-11.36,26.72-17.61,42.85-17.61.09,0,.16,0,.25.02,16.24.05,31.47,6.46,42.85,18,23.46,23.81,23.09,62.38-.86,85.98l-43.41,42.76Zm1.16-123.07c-9.88,0-19.18,3.84-26.21,10.78l-.02.02c-14.62,14.41-14.9,37.95-.6,52.45l25.91,26.31,26.56-26.15c14.62-14.41,14.9-37.95.58-52.48-6.89-7.01-16.17-10.9-26.05-10.94h-.16Z"/>
  </g>
  <g>
    <path class="cls-3" d="m703.74,413.95c-19.31,19.03-19.64,50.02-.72,69.21,11.42,11.58,22.83,23.16,34.25,34.75,11.66-11.49,23.31-22.98,34.97-34.47,19.31-19.03,19.64-50.02.72-69.21-18.91-19.19-49.9-19.32-69.22-.28Z"/>
    <path class="cls-4" d="m737.14,534.65l-42.57-43.2c-23.46-23.79-23.07-62.36.88-85.96,11.5-11.36,26.72-17.61,42.85-17.61.09,0,.16,0,.25.02,16.24.05,31.47,6.46,42.85,18,23.46,23.81,23.09,62.38-.86,85.98l-43.41,42.76Zm1.16-123.07c-9.88,0-19.18,3.84-26.21,10.78l-.02.02c-14.62,14.41-14.9,37.95-.6,52.45l25.91,26.31,26.56-26.15c14.62-14.41,14.9-37.95.58-52.48-6.89-7.01-16.17-10.9-26.05-10.94h-.16Z"/>
  </g>
</svg>