<?xml version="1.0" encoding="UTF-8"?>
<svg id="Ebene_1" data-name="Ebene 1" xmlns="http://www.w3.org/2000/svg" viewBox="0 0 841.89 595.28">
  <defs>
    <style>
      .cls-1 {
        fill: #1d1d1b;
        stroke-width: 0px;
      }
    </style>
  </defs>
  <g>
    <path class="cls-1" d="m276.34,280.81c0,4.77-.86,9.04-2.58,12.81-1.72,3.77-4.13,6.98-7.24,9.61-3.11,2.63-6.79,4.65-11.07,6.03-4.27,1.39-8.93,2.08-13.98,2.08-3.44,0-6.68-.32-9.73-.96-3.05-.64-5.77-1.4-8.15-2.29-2.39-.89-4.4-1.79-6.03-2.7-1.64-.92-2.76-1.69-3.37-2.33-.61-.64-1.05-1.39-1.33-2.25-.28-.86-.42-1.93-.42-3.2,0-.94.05-1.72.17-2.33.11-.61.26-1.11.46-1.5.19-.39.44-.65.75-.79.3-.14.62-.21.96-.21.78,0,1.87.49,3.29,1.46,1.41.97,3.24,2.03,5.49,3.16,2.25,1.14,4.94,2.19,8.07,3.16,3.13.97,6.78,1.46,10.94,1.46,3.38,0,6.49-.46,9.32-1.37,2.83-.92,5.27-2.23,7.32-3.95,2.05-1.72,3.65-3.84,4.78-6.36,1.14-2.52,1.71-5.39,1.71-8.61s-.72-6.18-2.16-8.57c-1.44-2.38-3.34-4.48-5.7-6.28-2.36-1.8-5.03-3.44-8.03-4.91-3-1.47-6.06-2.94-9.19-4.41-3.13-1.47-6.2-3.06-9.19-4.78-3-1.72-5.67-3.73-8.03-6.03-2.36-2.3-4.26-5-5.7-8.11-1.44-3.11-2.16-6.79-2.16-11.07s.75-7.89,2.25-11.19c1.5-3.3,3.61-6.1,6.32-8.4,2.72-2.3,5.98-4.06,9.78-5.28,3.8-1.22,7.97-1.83,12.52-1.83,2.27,0,4.58.22,6.91.67,2.33.44,4.53,1.01,6.61,1.71,2.08.69,3.94,1.47,5.57,2.33,1.64.86,2.72,1.55,3.25,2.08.53.53.86.92,1,1.17.14.25.26.57.37.96.11.39.19.85.25,1.37.05.53.08,1.18.08,1.96,0,.72-.04,1.37-.12,1.96-.08.58-.21,1.08-.37,1.5s-.37.74-.62.96c-.25.22-.54.33-.87.33-.61,0-1.54-.4-2.79-1.21-1.25-.8-2.82-1.71-4.7-2.7-1.89-1-4.13-1.9-6.74-2.7-2.61-.8-5.57-1.21-8.9-1.21s-6.13.44-8.57,1.33c-2.44.89-4.47,2.09-6.07,3.62-1.61,1.53-2.82,3.31-3.62,5.37-.8,2.05-1.21,4.22-1.21,6.49,0,3.33.72,6.19,2.16,8.57,1.44,2.39,3.36,4.49,5.74,6.32,2.38,1.83,5.09,3.48,8.11,4.95,3.02,1.47,6.1,2.94,9.24,4.41,3.13,1.47,6.21,3.05,9.24,4.74,3.02,1.69,5.73,3.69,8.11,5.99,2.38,2.3,4.3,4.99,5.74,8.07,1.44,3.08,2.16,6.73,2.16,10.94Z"/>
    <path class="cls-1" d="m363.36,206.93c0,.72-.06,1.36-.17,1.91-.11.56-.28,1.01-.5,1.37-.22.36-.5.64-.83.83-.33.2-.69.29-1.08.29h-32.11v96.93c0,.33-.08.64-.25.92-.17.28-.44.5-.83.67-.39.17-.92.3-1.58.42-.67.11-1.47.17-2.41.17s-1.75-.06-2.41-.17c-.67-.11-1.19-.25-1.58-.42-.39-.17-.67-.39-.83-.67-.17-.28-.25-.58-.25-.92v-96.93h-32.12c-.44,0-.82-.1-1.12-.29-.31-.19-.57-.47-.79-.83-.22-.36-.39-.82-.5-1.37-.11-.55-.17-1.19-.17-1.91,0-.78.05-1.46.17-2.04.11-.58.28-1.07.5-1.46.22-.39.48-.68.79-.87.3-.19.68-.29,1.12-.29h74.38c.39,0,.75.1,1.08.29.33.2.61.49.83.87.22.39.39.87.5,1.46.11.58.17,1.26.17,2.04Z"/>
    <path class="cls-1" d="m453.38,215.83c0,.72-.06,1.39-.17,2-.11.61-.26,1.12-.46,1.54-.2.42-.44.74-.75.96-.31.22-.62.33-.96.33-.67,0-1.76-.55-3.29-1.66-1.53-1.11-3.56-2.32-6.12-3.62-2.55-1.3-5.64-2.51-9.28-3.62-3.63-1.11-7.95-1.66-12.94-1.66-6.38,0-12.06,1.18-17.06,3.54-4.99,2.36-9.21,5.59-12.65,9.69-3.44,4.11-6.06,8.97-7.86,14.6-1.8,5.63-2.7,11.69-2.7,18.18,0,7.27,1.03,13.74,3.08,19.43,2.05,5.69,4.89,10.48,8.53,14.39s7.96,6.89,12.98,8.94c5.02,2.05,10.5,3.08,16.43,3.08,3.83,0,7.71-.47,11.65-1.41,3.94-.94,7.63-2.38,11.07-4.33v-34.86h-27.46c-.89,0-1.55-.39-2-1.17-.44-.78-.67-1.88-.67-3.33,0-.78.05-1.46.17-2.04.11-.58.28-1.05.5-1.41.22-.36.5-.64.83-.83.33-.19.72-.29,1.17-.29h32.95c.5,0,1.03.08,1.58.25.55.17,1.07.44,1.54.83.47.39.84.93,1.12,1.62.28.69.42,1.54.42,2.54v40.02c0,1.33-.21,2.47-.62,3.41-.42.94-1.37,1.84-2.87,2.7-1.5.86-3.49,1.8-5.99,2.83-2.5,1.03-5.08,1.89-7.74,2.58-2.66.69-5.34,1.22-8.03,1.58-2.69.36-5.34.54-7.95.54-8.15,0-15.43-1.32-21.84-3.95-6.41-2.63-11.81-6.35-16.22-11.15-4.41-4.8-7.78-10.51-10.11-17.14-2.33-6.63-3.49-13.94-3.49-21.92s1.26-16.02,3.79-22.92c2.52-6.91,6.07-12.8,10.65-17.68,4.58-4.88,10.05-8.67,16.43-11.36,6.38-2.69,13.42-4.04,21.13-4.04,3.88,0,7.56.36,11.02,1.08,3.47.72,6.59,1.6,9.36,2.62,2.77,1.03,5.13,2.14,7.07,3.33,1.94,1.19,3.26,2.14,3.95,2.83.69.69,1.17,1.37,1.42,2.04.25.67.37,1.64.37,2.91Z"/>
    <path class="cls-1" d="m560.29,215.83c0,.72-.06,1.39-.17,2-.11.61-.26,1.12-.46,1.54-.2.42-.44.74-.75.96-.31.22-.62.33-.96.33-.67,0-1.76-.55-3.29-1.66-1.53-1.11-3.56-2.32-6.12-3.62-2.55-1.3-5.64-2.51-9.28-3.62-3.63-1.11-7.95-1.66-12.94-1.66-6.38,0-12.06,1.18-17.06,3.54-4.99,2.36-9.21,5.59-12.65,9.69-3.44,4.11-6.06,8.97-7.86,14.6-1.8,5.63-2.7,11.69-2.7,18.18,0,7.27,1.03,13.74,3.08,19.43,2.05,5.69,4.89,10.48,8.53,14.39s7.96,6.89,12.98,8.94c5.02,2.05,10.5,3.08,16.43,3.08,3.83,0,7.71-.47,11.65-1.41,3.94-.94,7.63-2.38,11.07-4.33v-34.86h-27.46c-.89,0-1.55-.39-2-1.17-.44-.78-.67-1.88-.67-3.33,0-.78.05-1.46.17-2.04.11-.58.28-1.05.5-1.41.22-.36.5-.64.83-.83.33-.19.72-.29,1.17-.29h32.95c.5,0,1.03.08,1.58.25.55.17,1.07.44,1.54.83.47.39.84.93,1.12,1.62.28.69.42,1.54.42,2.54v40.02c0,1.33-.21,2.47-.62,3.41-.42.94-1.37,1.84-2.87,2.7-1.5.86-3.49,1.8-5.99,2.83-2.5,1.03-5.08,1.89-7.74,2.58-2.66.69-5.34,1.22-8.03,1.58-2.69.36-5.34.54-7.95.54-8.15,0-15.43-1.32-21.84-3.95-6.41-2.63-11.81-6.35-16.22-11.15-4.41-4.8-7.78-10.51-10.11-17.14-2.33-6.63-3.49-13.94-3.49-21.92s1.26-16.02,3.79-22.92c2.52-6.91,6.07-12.8,10.65-17.68,4.58-4.88,10.05-8.67,16.43-11.36,6.38-2.69,13.42-4.04,21.13-4.04,3.88,0,7.56.36,11.02,1.08,3.47.72,6.59,1.6,9.36,2.62,2.77,1.03,5.13,2.14,7.07,3.33,1.94,1.19,3.26,2.14,3.95,2.83.69.69,1.17,1.37,1.42,2.04.25.67.37,1.64.37,2.91Z"/>
    <path class="cls-1" d="m653.73,206.93c0,.72-.06,1.36-.17,1.91-.11.56-.28,1.01-.5,1.37-.22.36-.5.64-.83.83-.33.2-.69.29-1.08.29h-32.11v96.93c0,.33-.08.64-.25.92-.17.28-.44.5-.83.67-.39.17-.92.3-1.58.42-.67.11-1.47.17-2.41.17s-1.75-.06-2.41-.17c-.67-.11-1.19-.25-1.58-.42-.39-.17-.67-.39-.83-.67-.17-.28-.25-.58-.25-.92v-96.93h-32.12c-.44,0-.82-.1-1.12-.29-.31-.19-.57-.47-.79-.83-.22-.36-.39-.82-.5-1.37-.11-.55-.17-1.19-.17-1.91,0-.78.05-1.46.17-2.04.11-.58.28-1.07.5-1.46.22-.39.48-.68.79-.87.3-.19.68-.29,1.12-.29h74.38c.39,0,.75.1,1.08.29.33.2.61.49.83.87.22.39.39.87.5,1.46.11.58.17,1.26.17,2.04Z"/>
  </g>
  <g>
    <path class="cls-1" d="m235.71,355.7c0,1.75-.32,3.32-.95,4.71-.63,1.39-1.52,2.56-2.66,3.53-1.14.97-2.5,1.71-4.06,2.22-1.57.51-3.28.76-5.13.76-1.26,0-2.46-.12-3.58-.35-1.12-.23-2.12-.51-2.99-.84s-1.62-.66-2.22-.99c-.6-.34-1.01-.62-1.24-.86-.22-.23-.39-.51-.49-.83-.1-.32-.15-.71-.15-1.18,0-.35.02-.63.06-.86.04-.22.1-.41.17-.55.07-.14.16-.24.27-.29.11-.05.23-.08.35-.08.29,0,.69.18,1.21.54s1.19.74,2.02,1.16,1.81.8,2.96,1.16c1.15.36,2.49.53,4.02.53,1.24,0,2.38-.17,3.42-.5s1.93-.82,2.69-1.45,1.34-1.41,1.76-2.34c.42-.93.63-1.98.63-3.16s-.26-2.27-.79-3.15c-.53-.88-1.23-1.65-2.09-2.31-.87-.66-1.85-1.26-2.95-1.8-1.1-.54-2.23-1.08-3.38-1.62-1.15-.54-2.28-1.13-3.38-1.76-1.1-.63-2.08-1.37-2.95-2.22-.87-.84-1.56-1.84-2.09-2.98-.53-1.14-.79-2.5-.79-4.06s.27-2.9.83-4.11c.55-1.21,1.32-2.24,2.32-3.09,1-.85,2.19-1.49,3.59-1.94s2.93-.67,4.6-.67c.83,0,1.68.08,2.54.25.86.16,1.67.37,2.43.63.76.25,1.45.54,2.05.86.6.32,1,.57,1.19.76.19.19.32.34.37.43.05.09.1.21.14.35.04.14.07.31.09.5s.03.43.03.72c0,.26-.01.5-.05.72-.03.21-.08.4-.14.55-.06.15-.14.27-.23.35-.09.08-.2.12-.32.12-.22,0-.56-.15-1.02-.44-.46-.29-1.03-.63-1.73-.99-.69-.37-1.52-.7-2.47-.99-.96-.29-2.05-.44-3.27-.44s-2.25.16-3.15.49c-.9.33-1.64.77-2.23,1.33-.59.56-1.03,1.22-1.33,1.97-.3.75-.44,1.55-.44,2.38,0,1.22.26,2.27.79,3.15.53.88,1.23,1.65,2.11,2.32s1.87,1.28,2.98,1.82,2.24,1.08,3.39,1.62c1.15.54,2.28,1.12,3.39,1.74,1.11.62,2.1,1.35,2.98,2.2.88.84,1.58,1.83,2.11,2.96.53,1.13.79,2.47.79,4.02Z"/>
    <path class="cls-1" d="m256.67,364.14c0,.43-.04.77-.11,1.04-.07.27-.18.47-.34.63s-.38.29-.67.43c-.3.13-.64.24-1.02.34-.39.09-.79.16-1.22.21s-.85.08-1.25.08c-1.37,0-2.53-.18-3.48-.55-.96-.37-1.74-.92-2.35-1.67-.61-.74-1.05-1.69-1.33-2.83-.28-1.14-.41-2.48-.41-4.03v-17.2h-4.12c-.29,0-.51-.13-.67-.38-.16-.25-.25-.64-.25-1.15,0-.26.02-.49.06-.69.04-.19.1-.36.18-.49.08-.13.18-.23.29-.29.11-.06.24-.09.38-.09h4.12v-6.78c0-.12.03-.23.08-.34s.15-.19.29-.26c.14-.07.33-.12.57-.15.23-.03.52-.05.87-.05.37,0,.67.02.9.05.23.03.42.08.55.15.13.07.23.16.29.26.06.1.09.21.09.34v6.78h7.64c.14,0,.27.03.38.09.11.06.21.16.29.29.08.13.14.3.18.49.04.19.06.42.06.69,0,.51-.09.89-.26,1.15s-.39.38-.66.38h-7.64v16.71c0,2.1.3,3.7.9,4.8.6,1.1,1.7,1.65,3.29,1.65.49,0,.93-.05,1.33-.15.4-.1.75-.21,1.05-.34s.57-.23.78-.34c.21-.1.4-.15.57-.15.1,0,.19.02.28.06.08.04.15.12.2.23s.09.25.12.43.05.39.05.66Z"/>
    <path class="cls-1" d="m282.37,365.79c0,.2-.07.36-.2.47-.13.11-.31.19-.52.25-.21.05-.5.08-.87.08-.35,0-.64-.03-.89-.08-.24-.05-.43-.13-.57-.25-.13-.11-.2-.27-.2-.47v-3.09c-1.24,1.34-2.61,2.38-4.11,3.12-1.5.73-3.05,1.1-4.66,1.1-1.45,0-2.75-.19-3.9-.57-1.15-.38-2.12-.92-2.92-1.62-.79-.7-1.41-1.55-1.83-2.55s-.64-2.12-.64-3.36c0-1.53.32-2.86.95-3.99.63-1.13,1.53-2.07,2.69-2.83,1.16-.75,2.56-1.32,4.19-1.7,1.63-.38,3.44-.57,5.44-.57h4.4v-2.38c0-1.18-.12-2.23-.37-3.13-.25-.91-.64-1.67-1.19-2.28s-1.26-1.07-2.14-1.38-1.95-.46-3.21-.46-2.32.15-3.3.44c-.98.3-1.83.63-2.57.99-.73.37-1.34.7-1.82.99-.48.3-.82.44-1.02.44-.12,0-.23-.02-.34-.06-.1-.04-.19-.12-.26-.23-.07-.11-.12-.25-.15-.43-.03-.17-.05-.38-.05-.63,0-.43.03-.77.09-1.02s.22-.51.47-.76c.25-.25.71-.55,1.36-.9.65-.35,1.4-.67,2.25-.96.85-.3,1.76-.54,2.74-.72.98-.18,1.96-.27,2.93-.27,1.89,0,3.49.23,4.8.69,1.3.46,2.36,1.12,3.16,1.97.8.86,1.38,1.91,1.73,3.16.35,1.25.52,2.67.52,4.26v18.7Zm-3.64-13.05h-5.04c-1.47,0-2.75.13-3.85.4-1.1.26-2.02.65-2.75,1.16-.73.51-1.28,1.12-1.63,1.83-.36.71-.53,1.53-.53,2.45,0,1.59.5,2.86,1.51,3.8,1.01.95,2.43,1.42,4.26,1.42,1.45,0,2.8-.37,4.05-1.12,1.25-.74,2.58-1.89,3.99-3.44v-6.51Z"/>
    <path class="cls-1" d="m307.8,339.54c0,.31-.01.57-.03.78-.02.21-.06.39-.11.52s-.11.23-.18.31c-.07.07-.17.11-.29.11-.18,0-.4-.05-.64-.14-.24-.09-.53-.19-.86-.29-.33-.1-.68-.2-1.07-.29s-.82-.14-1.28-.14c-.55,0-1.09.12-1.62.35-.53.23-1.08.61-1.67,1.13-.58.52-1.19,1.21-1.83,2.06-.64.86-1.35,1.9-2.12,3.15v18.7c0,.12-.03.23-.09.34-.06.1-.16.18-.29.25-.13.06-.32.11-.55.15-.23.04-.54.06-.9.06-.35,0-.64-.02-.87-.06-.23-.04-.42-.09-.57-.15-.14-.06-.24-.14-.29-.25-.05-.1-.08-.21-.08-.34v-27.65c0-.12.03-.23.08-.34.05-.1.15-.19.29-.26.14-.07.32-.12.54-.15s.49-.05.84-.05.63.02.86.05c.22.03.4.08.52.15.12.07.21.16.26.26.05.1.08.21.08.34v4.37c.79-1.16,1.53-2.1,2.2-2.81.67-.71,1.31-1.27,1.92-1.67.61-.4,1.21-.67,1.79-.81.58-.14,1.18-.21,1.79-.21.26,0,.57.01.92.05.35.03.72.09,1.12.17s.75.18,1.07.29c.32.11.54.21.66.31s.2.17.24.24c.04.07.08.16.11.28s.05.26.06.46c0,.19.01.44.01.75Z"/>
    <path class="cls-1" d="m327.35,364.14c0,.43-.04.77-.11,1.04-.07.27-.18.47-.34.63s-.38.29-.67.43c-.3.13-.64.24-1.02.34-.39.09-.79.16-1.22.21s-.85.08-1.25.08c-1.37,0-2.53-.18-3.48-.55-.96-.37-1.74-.92-2.35-1.67-.61-.74-1.05-1.69-1.33-2.83-.28-1.14-.41-2.48-.41-4.03v-17.2h-4.12c-.29,0-.51-.13-.67-.38-.16-.25-.25-.64-.25-1.15,0-.26.02-.49.06-.69.04-.19.1-.36.18-.49.08-.13.18-.23.29-.29.11-.06.24-.09.38-.09h4.12v-6.78c0-.12.03-.23.08-.34s.15-.19.29-.26c.14-.07.33-.12.57-.15.23-.03.52-.05.87-.05.37,0,.67.02.9.05.23.03.42.08.55.15.13.07.23.16.29.26.06.1.09.21.09.34v6.78h7.64c.14,0,.27.03.38.09.11.06.21.16.29.29.08.13.14.3.18.49.04.19.06.42.06.69,0,.51-.09.89-.26,1.15s-.39.38-.66.38h-7.64v16.71c0,2.1.3,3.7.9,4.8.6,1.1,1.7,1.65,3.29,1.65.49,0,.93-.05,1.33-.15.4-.1.75-.21,1.05-.34s.57-.23.78-.34c.21-.1.4-.15.57-.15.1,0,.19.02.28.06.08.04.15.12.2.23s.09.25.12.43.05.39.05.66Z"/>
    <path class="cls-1" d="m356.9,365.79c0,.12-.03.23-.08.34-.05.1-.15.18-.29.25-.14.06-.33.11-.55.15-.22.04-.5.06-.83.06-.37,0-.66-.02-.89-.06-.22-.04-.4-.09-.52-.15-.12-.06-.21-.14-.26-.25-.05-.1-.08-.21-.08-.34v-3.91c-1.59,1.77-3.14,3.06-4.66,3.85-1.52.79-3.03,1.19-4.54,1.19-1.81,0-3.34-.31-4.58-.92-1.24-.61-2.25-1.44-3.01-2.49-.76-1.05-1.31-2.27-1.65-3.65-.34-1.38-.5-3.06-.5-5.01v-16.71c0-.12.03-.23.08-.34.05-.1.15-.19.29-.26.14-.07.33-.12.57-.15.23-.03.52-.05.87-.05.37,0,.67.02.9.05.23.03.42.08.55.15.13.07.23.16.29.26.06.1.09.21.09.34v16.38c0,1.71.13,3.11.4,4.19.26,1.08.66,2,1.19,2.77.53.76,1.21,1.35,2.03,1.77.83.42,1.79.63,2.89.63,1.41,0,2.81-.5,4.2-1.5s2.88-2.46,4.45-4.4v-19.83c0-.12.03-.23.08-.34.05-.1.15-.19.29-.26.14-.07.33-.12.57-.15s.54-.05.9-.05c.35,0,.64.02.87.05s.42.08.55.15c.13.07.23.16.29.26.06.1.09.21.09.34v27.65Z"/>
    <path class="cls-1" d="m391.25,351.55c0,2.36-.26,4.49-.78,6.39s-1.28,3.5-2.29,4.83c-1.01,1.33-2.26,2.35-3.74,3.07s-3.19,1.08-5.1,1.08c-.82,0-1.58-.09-2.29-.26-.71-.17-1.41-.44-2.09-.81-.68-.37-1.36-.83-2.05-1.38-.68-.55-1.4-1.21-2.15-1.99v14.27c0,.12-.03.23-.09.34-.06.1-.16.19-.29.26-.13.07-.32.12-.55.15-.23.03-.54.05-.9.05-.35,0-.64-.02-.87-.05-.23-.03-.42-.08-.57-.15-.14-.07-.24-.16-.29-.26-.05-.1-.08-.21-.08-.34v-38.62c0-.14.03-.26.08-.37.05-.1.14-.18.27-.24.13-.06.31-.11.52-.14s.47-.05.78-.05.56.02.76.05c.2.03.38.08.52.14.14.06.25.14.31.24.06.1.09.22.09.37v4c.86-.88,1.67-1.63,2.44-2.28s1.55-1.18,2.32-1.6,1.57-.74,2.38-.95c.81-.2,1.68-.31,2.6-.31,2,0,3.7.38,5.1,1.15,1.41.76,2.55,1.81,3.44,3.13.89,1.33,1.53,2.87,1.93,4.63.4,1.76.6,3.64.6,5.64Zm-3.82.58c0-1.55-.12-3.04-.37-4.48-.24-1.44-.66-2.71-1.24-3.83-.58-1.12-1.36-2.02-2.32-2.69-.97-.67-2.19-1.01-3.65-1.01-.73,0-1.45.1-2.15.31-.7.2-1.42.54-2.15,1.01s-1.5,1.07-2.29,1.82c-.79.74-1.63,1.67-2.51,2.76v12.04c1.53,1.85,2.99,3.27,4.38,4.26s2.86,1.48,4.38,1.48c1.41,0,2.61-.34,3.62-1.02,1.01-.68,1.83-1.58,2.46-2.69.63-1.11,1.09-2.36,1.39-3.76.29-1.4.44-2.8.44-4.2Z"/>
    <path class="cls-1" d="m427.09,364.14c0,.43-.04.77-.11,1.04-.07.27-.18.47-.34.63s-.38.29-.67.43c-.3.13-.64.24-1.02.34-.39.09-.79.16-1.22.21s-.85.08-1.25.08c-1.37,0-2.53-.18-3.48-.55-.96-.37-1.74-.92-2.35-1.67-.61-.74-1.05-1.69-1.33-2.83-.28-1.14-.41-2.48-.41-4.03v-17.2h-4.12c-.29,0-.51-.13-.67-.38-.16-.25-.25-.64-.25-1.15,0-.26.02-.49.06-.69.04-.19.1-.36.18-.49.08-.13.18-.23.29-.29.11-.06.24-.09.38-.09h4.12v-6.78c0-.12.03-.23.08-.34s.15-.19.29-.26c.14-.07.33-.12.57-.15.23-.03.52-.05.87-.05.37,0,.67.02.9.05.23.03.42.08.55.15.13.07.23.16.29.26.06.1.09.21.09.34v6.78h7.64c.14,0,.27.03.38.09.11.06.21.16.29.29.08.13.14.3.18.49.04.19.06.42.06.69,0,.51-.09.89-.26,1.15s-.39.38-.66.38h-7.64v16.71c0,2.1.3,3.7.9,4.8.6,1.1,1.7,1.65,3.29,1.65.49,0,.93-.05,1.33-.15.4-.1.75-.21,1.05-.34s.57-.23.78-.34c.21-.1.4-.15.57-.15.1,0,.19.02.28.06.08.04.15.12.2.23s.09.25.12.43.05.39.05.66Z"/>
    <path class="cls-1" d="m458.2,351.67c0,2.2-.29,4.23-.86,6.08s-1.42,3.46-2.55,4.83-2.54,2.43-4.23,3.19c-1.69.76-3.66,1.15-5.9,1.15s-4.05-.34-5.67-1.02c-1.62-.68-2.97-1.66-4.06-2.93s-1.9-2.82-2.44-4.63c-.54-1.81-.81-3.86-.81-6.14s.28-4.23.84-6.08c.56-1.85,1.41-3.46,2.54-4.81,1.13-1.35,2.54-2.41,4.23-3.16,1.69-.75,3.67-1.13,5.93-1.13s4.05.34,5.67,1.01c1.62.67,2.97,1.65,4.05,2.92,1.08,1.27,1.89,2.82,2.44,4.63.55,1.81.83,3.85.83,6.11Zm-3.85.34c0-1.57-.15-3.07-.46-4.49s-.81-2.68-1.53-3.77c-.71-1.09-1.67-1.96-2.87-2.6-1.2-.64-2.7-.96-4.49-.96-1.65,0-3.08.3-4.28.89-1.2.59-2.18,1.41-2.95,2.46-.76,1.05-1.33,2.29-1.7,3.71-.37,1.43-.55,2.96-.55,4.61s.15,3.1.46,4.54c.31,1.44.81,2.69,1.53,3.77s1.67,1.94,2.87,2.57c1.2.63,2.7.95,4.49.95,1.65,0,3.08-.29,4.28-.89s2.18-1.41,2.95-2.44c.76-1.04,1.33-2.27,1.7-3.7.37-1.43.55-2.97.55-4.64Z"/>
    <path class="cls-1" d="m509.78,331.84c0,.26-.02.51-.06.73-.04.22-.1.41-.17.56-.07.15-.16.27-.28.35-.11.08-.23.12-.35.12-.25,0-.65-.2-1.21-.61-.56-.41-1.31-.85-2.25-1.33-.94-.48-2.07-.92-3.41-1.33-1.33-.41-2.92-.61-4.75-.61-2.34,0-4.43.43-6.26,1.3-1.83.87-3.38,2.05-4.64,3.56-1.26,1.51-2.23,3.29-2.89,5.36-.66,2.07-.99,4.29-.99,6.68,0,2.67.38,5.05,1.13,7.13.75,2.09,1.8,3.85,3.13,5.29,1.33,1.44,2.92,2.53,4.77,3.28,1.84.75,3.85,1.13,6.04,1.13,1.41,0,2.83-.17,4.28-.52,1.45-.35,2.8-.88,4.06-1.59v-12.8h-10.08c-.33,0-.57-.14-.73-.43-.16-.29-.24-.69-.24-1.22,0-.29.02-.54.06-.75.04-.21.1-.39.18-.52.08-.13.18-.23.31-.31.12-.07.26-.11.43-.11h12.1c.18,0,.38.03.58.09.2.06.39.16.57.31.17.14.31.34.41.6.1.25.15.57.15.93v14.7c0,.49-.08.91-.23,1.25-.15.35-.5.68-1.05.99-.55.32-1.28.66-2.2,1.04-.92.38-1.86.69-2.84.95-.98.26-1.96.45-2.95.58-.99.13-1.96.2-2.92.2-3,0-5.67-.48-8.02-1.45-2.35-.97-4.34-2.33-5.96-4.09-1.62-1.76-2.86-3.86-3.71-6.29-.86-2.43-1.28-5.12-1.28-8.05s.46-5.88,1.39-8.42,2.23-4.7,3.91-6.49,3.69-3.18,6.04-4.17,4.93-1.48,7.76-1.48c1.43,0,2.78.13,4.05.4,1.27.26,2.42.59,3.44.96,1.02.38,1.88.79,2.6,1.22.71.44,1.2.78,1.45,1.04.25.25.43.5.52.75.09.25.14.6.14,1.07Z"/>
    <path class="cls-1" d="m542.32,350.54c0,.73-.19,1.24-.58,1.51-.39.28-.76.41-1.13.41h-18.85c0,1.71.17,3.26.5,4.64.34,1.39.89,2.57,1.67,3.56.77.99,1.78,1.75,3.03,2.28,1.24.53,2.77.79,4.58.79,1.28,0,2.43-.11,3.45-.34,1.02-.22,1.9-.47,2.64-.75.74-.28,1.35-.52,1.83-.75.48-.22.82-.34,1.02-.34.12,0,.23.03.34.09.1.06.18.16.24.29.06.13.11.3.14.5.03.2.05.46.05.76,0,.14-.01.28-.03.41-.02.13-.05.25-.08.37s-.08.22-.14.32c-.06.1-.14.2-.24.31s-.42.28-.95.54c-.53.25-1.22.51-2.08.76s-1.85.48-2.98.69c-1.13.2-2.35.31-3.65.31-2.14,0-4.03-.32-5.68-.96-1.65-.64-3.04-1.59-4.16-2.84-1.12-1.25-1.97-2.81-2.55-4.66-.58-1.85-.87-4-.87-6.45s.3-4.44.9-6.29c.6-1.85,1.46-3.43,2.58-4.72,1.12-1.29,2.47-2.28,4.05-2.96s3.34-1.02,5.27-1.02c2.08,0,3.85.35,5.32,1.04s2.67,1.62,3.62,2.8c.95,1.17,1.64,2.53,2.08,4.08.44,1.55.66,3.18.66,4.89v.73Zm-3.76-1.07c.06-2.93-.61-5.22-2.02-6.88s-3.45-2.48-6.14-2.48c-1.39,0-2.6.26-3.65.78s-1.94,1.21-2.66,2.06c-.72.86-1.28,1.85-1.67,2.98-.39,1.13-.61,2.31-.67,3.53h16.81Z"/>
    <path class="cls-1" d="m566.03,339.54c0,.31-.01.57-.03.78-.02.21-.06.39-.11.52s-.11.23-.18.31c-.07.07-.17.11-.29.11-.18,0-.4-.05-.64-.14-.24-.09-.53-.19-.86-.29-.33-.1-.68-.2-1.07-.29s-.82-.14-1.28-.14c-.55,0-1.09.12-1.62.35-.53.23-1.08.61-1.67,1.13-.58.52-1.19,1.21-1.83,2.06-.64.86-1.35,1.9-2.12,3.15v18.7c0,.12-.03.23-.09.34-.06.1-.16.18-.29.25-.13.06-.32.11-.55.15-.23.04-.54.06-.9.06-.35,0-.64-.02-.87-.06-.23-.04-.42-.09-.57-.15-.14-.06-.24-.14-.29-.25-.05-.1-.08-.21-.08-.34v-27.65c0-.12.03-.23.08-.34.05-.1.15-.19.29-.26.14-.07.32-.12.54-.15s.49-.05.84-.05.63.02.86.05c.22.03.4.08.52.15.12.07.21.16.26.26.05.1.08.21.08.34v4.37c.79-1.16,1.53-2.1,2.2-2.81.67-.71,1.31-1.27,1.92-1.67.61-.4,1.21-.67,1.79-.81.58-.14,1.18-.21,1.79-.21.26,0,.57.01.92.05.35.03.72.09,1.12.17s.75.18,1.07.29c.32.11.54.21.66.31s.2.17.24.24c.04.07.08.16.11.28s.05.26.06.46c0,.19.01.44.01.75Z"/>
    <path class="cls-1" d="m611.68,365.79c0,.12-.03.23-.09.34-.06.1-.16.18-.29.25-.13.06-.32.11-.55.15-.23.04-.53.06-.87.06-.37,0-.67-.02-.9-.06-.23-.04-.42-.09-.57-.15-.14-.06-.24-.14-.29-.25-.05-.1-.08-.21-.08-.34v-17.02c0-1.3-.12-2.49-.35-3.56-.23-1.07-.6-1.99-1.1-2.75s-1.13-1.35-1.89-1.77c-.76-.42-1.67-.63-2.7-.63-1.28,0-2.58.5-3.9,1.5-1.31,1-2.75,2.46-4.32,4.4v19.83c0,.12-.03.23-.09.34-.06.1-.16.18-.29.25-.13.06-.32.11-.55.15-.24.04-.53.06-.87.06s-.64-.02-.87-.06-.42-.09-.57-.15c-.14-.06-.24-.14-.29-.25-.05-.1-.08-.21-.08-.34v-17.02c0-1.3-.12-2.49-.37-3.56s-.62-1.99-1.12-2.75-1.13-1.35-1.89-1.77c-.76-.42-1.67-.63-2.7-.63-1.28,0-2.58.5-3.9,1.5-1.31,1-2.75,2.46-4.29,4.4v19.83c0,.12-.03.23-.09.34-.06.1-.16.18-.29.25-.13.06-.32.11-.55.15-.23.04-.54.06-.9.06-.35,0-.64-.02-.87-.06-.23-.04-.42-.09-.57-.15-.14-.06-.24-.14-.29-.25-.05-.1-.08-.21-.08-.34v-27.65c0-.12.03-.23.08-.34.05-.1.15-.19.29-.26.14-.07.32-.12.54-.15s.49-.05.84-.05.63.02.86.05c.22.03.4.08.52.15.12.07.21.16.26.26.05.1.08.21.08.34v3.91c1.59-1.77,3.1-3.06,4.52-3.85s2.84-1.19,4.25-1.19c1.16,0,2.19.14,3.1.41.91.28,1.71.66,2.4,1.16.69.5,1.28,1.1,1.77,1.79.49.69.89,1.46,1.19,2.29.96-1.06,1.86-1.95,2.7-2.67.85-.72,1.65-1.3,2.41-1.74.76-.44,1.5-.75,2.22-.95.71-.19,1.42-.29,2.11-.29,1.73,0,3.19.31,4.38.92,1.19.61,2.15,1.44,2.87,2.48s1.24,2.25,1.56,3.64c.32,1.39.47,2.85.47,4.4v17.36Z"/>
    <path class="cls-1" d="m641.14,365.79c0,.2-.07.36-.2.47-.13.11-.31.19-.52.25-.21.05-.5.08-.87.08-.35,0-.64-.03-.89-.08-.24-.05-.43-.13-.57-.25-.13-.11-.2-.27-.2-.47v-3.09c-1.24,1.34-2.61,2.38-4.11,3.12-1.5.73-3.05,1.1-4.66,1.1-1.45,0-2.75-.19-3.9-.57-1.15-.38-2.12-.92-2.92-1.62-.79-.7-1.41-1.55-1.83-2.55s-.64-2.12-.64-3.36c0-1.53.32-2.86.95-3.99.63-1.13,1.53-2.07,2.69-2.83,1.16-.75,2.56-1.32,4.19-1.7,1.63-.38,3.44-.57,5.44-.57h4.4v-2.38c0-1.18-.12-2.23-.37-3.13-.25-.91-.64-1.67-1.19-2.28s-1.26-1.07-2.14-1.38-1.95-.46-3.21-.46-2.32.15-3.3.44c-.98.3-1.83.63-2.57.99-.73.37-1.34.7-1.82.99-.48.3-.82.44-1.02.44-.12,0-.23-.02-.34-.06-.1-.04-.19-.12-.26-.23-.07-.11-.12-.25-.15-.43-.03-.17-.05-.38-.05-.63,0-.43.03-.77.09-1.02s.22-.51.47-.76c.25-.25.71-.55,1.36-.9.65-.35,1.4-.67,2.25-.96.85-.3,1.76-.54,2.74-.72.98-.18,1.96-.27,2.93-.27,1.89,0,3.49.23,4.8.69,1.3.46,2.36,1.12,3.16,1.97.8.86,1.38,1.91,1.73,3.16.35,1.25.52,2.67.52,4.26v18.7Zm-3.64-13.05h-5.04c-1.47,0-2.75.13-3.85.4-1.1.26-2.02.65-2.75,1.16-.73.51-1.28,1.12-1.63,1.83-.36.71-.53,1.53-.53,2.45,0,1.59.5,2.86,1.51,3.8,1.01.95,2.43,1.42,4.26,1.42,1.45,0,2.8-.37,4.05-1.12,1.25-.74,2.58-1.89,3.99-3.44v-6.51Z"/>
    <path class="cls-1" d="m673.65,365.79c0,.12-.03.23-.09.34-.06.1-.16.18-.29.25-.13.06-.32.11-.55.15s-.52.06-.87.06c-.37,0-.67-.02-.9-.06s-.42-.09-.55-.15c-.13-.06-.23-.14-.29-.25-.06-.1-.09-.21-.09-.34v-16.41c0-1.71-.13-3.1-.4-4.17s-.66-1.99-1.19-2.75c-.53-.76-1.21-1.35-2.03-1.77-.83-.42-1.79-.63-2.89-.63-1.41,0-2.81.5-4.22,1.5s-2.88,2.46-4.43,4.4v19.83c0,.12-.03.23-.09.34-.06.1-.16.18-.29.25-.13.06-.32.11-.55.15-.23.04-.54.06-.9.06-.35,0-.64-.02-.87-.06-.23-.04-.42-.09-.57-.15-.14-.06-.24-.14-.29-.25-.05-.1-.08-.21-.08-.34v-27.65c0-.12.03-.23.08-.34.05-.1.15-.19.29-.26.14-.07.32-.12.54-.15s.49-.05.84-.05.63.02.86.05c.22.03.4.08.52.15.12.07.21.16.26.26.05.1.08.21.08.34v3.91c1.59-1.77,3.15-3.06,4.68-3.85,1.53-.79,3.04-1.19,4.55-1.19,1.81,0,3.34.31,4.58.92,1.24.61,2.25,1.44,3.01,2.48.76,1.04,1.31,2.25,1.65,3.64.34,1.39.5,3.06.5,5.01v16.75Z"/>
    <path class="cls-1" d="m244.3,388.29c0,.26-.02.51-.06.73-.04.22-.1.41-.17.56-.07.15-.16.27-.28.35-.11.08-.23.12-.35.12-.25,0-.65-.2-1.21-.61-.56-.41-1.31-.85-2.25-1.33-.94-.48-2.07-.92-3.41-1.33-1.33-.41-2.92-.61-4.75-.61-2.34,0-4.43.43-6.26,1.3-1.83.87-3.38,2.05-4.64,3.56-1.26,1.51-2.23,3.29-2.89,5.36-.66,2.07-.99,4.29-.99,6.68,0,2.67.38,5.05,1.13,7.13.75,2.09,1.8,3.85,3.13,5.29,1.33,1.44,2.92,2.53,4.77,3.28,1.84.75,3.85,1.13,6.04,1.13,1.41,0,2.83-.17,4.28-.52,1.45-.35,2.8-.88,4.06-1.59v-12.8h-10.08c-.33,0-.57-.14-.73-.43-.16-.29-.24-.69-.24-1.22,0-.29.02-.54.06-.75.04-.21.1-.39.18-.52.08-.13.18-.23.31-.31.12-.07.26-.11.43-.11h12.1c.18,0,.38.03.58.09.2.06.39.16.57.31.17.14.31.34.41.6.1.25.15.57.15.93v14.7c0,.49-.08.91-.23,1.25-.15.35-.5.68-1.05.99-.55.32-1.28.66-2.2,1.04-.92.38-1.86.69-2.84.95-.98.26-1.96.45-2.95.58-.99.13-1.96.2-2.92.2-3,0-5.67-.48-8.02-1.45-2.35-.97-4.34-2.33-5.96-4.09-1.62-1.76-2.86-3.86-3.71-6.29-.86-2.43-1.28-5.12-1.28-8.05s.46-5.88,1.39-8.42,2.23-4.7,3.91-6.49,3.69-3.18,6.04-4.17,4.93-1.48,7.76-1.48c1.43,0,2.78.13,4.05.4,1.27.26,2.42.59,3.44.96,1.02.38,1.88.79,2.6,1.22.71.44,1.2.78,1.45,1.04.25.25.43.5.52.75.09.25.14.6.14,1.07Z"/>
    <path class="cls-1" d="m269.63,395.99c0,.31-.01.57-.03.78-.02.21-.06.39-.11.52s-.11.23-.18.31c-.07.07-.17.11-.29.11-.18,0-.4-.05-.64-.14-.24-.09-.53-.19-.86-.29-.33-.1-.68-.2-1.07-.29s-.82-.14-1.28-.14c-.55,0-1.09.12-1.62.35-.53.23-1.08.61-1.67,1.13-.58.52-1.19,1.21-1.83,2.06-.64.86-1.35,1.9-2.12,3.15v18.7c0,.12-.03.23-.09.34-.06.1-.16.18-.29.25-.13.06-.32.11-.55.15-.23.04-.54.06-.9.06-.35,0-.64-.02-.87-.06-.23-.04-.42-.09-.57-.15-.14-.06-.24-.14-.29-.25-.05-.1-.08-.21-.08-.34v-27.65c0-.12.03-.23.08-.34.05-.1.15-.19.29-.26.14-.07.32-.12.54-.15s.49-.05.84-.05.63.02.86.05c.22.03.4.08.52.15.12.07.21.16.26.26.05.1.08.21.08.34v4.37c.79-1.16,1.53-2.1,2.2-2.81.67-.71,1.31-1.27,1.92-1.67.61-.4,1.21-.67,1.79-.81.58-.14,1.18-.21,1.79-.21.26,0,.57.01.92.05.35.03.72.09,1.12.17s.75.18,1.07.29c.32.11.54.21.66.31s.2.17.24.24c.04.07.08.16.11.28s.05.26.06.46c0,.19.01.44.01.75Z"/>
    <path class="cls-1" d="m299.12,408.12c0,2.2-.29,4.23-.86,6.08s-1.42,3.46-2.55,4.83-2.54,2.43-4.23,3.19c-1.69.76-3.66,1.15-5.9,1.15s-4.05-.34-5.67-1.02c-1.62-.68-2.97-1.66-4.06-2.93s-1.9-2.82-2.44-4.63c-.54-1.81-.81-3.86-.81-6.14s.28-4.23.84-6.08c.56-1.85,1.41-3.46,2.54-4.81,1.13-1.35,2.54-2.41,4.23-3.16,1.69-.75,3.67-1.13,5.93-1.13s4.05.34,5.67,1.01c1.62.67,2.97,1.65,4.05,2.92,1.08,1.27,1.89,2.82,2.44,4.63.55,1.81.83,3.85.83,6.11Zm-3.85.34c0-1.57-.15-3.07-.46-4.49s-.81-2.68-1.53-3.77c-.71-1.09-1.67-1.96-2.87-2.6-1.2-.64-2.7-.96-4.49-.96-1.65,0-3.08.3-4.28.89-1.2.59-2.18,1.41-2.95,2.46-.76,1.05-1.33,2.29-1.7,3.71-.37,1.43-.55,2.96-.55,4.61s.15,3.1.46,4.54c.31,1.44.81,2.69,1.53,3.77s1.67,1.94,2.87,2.57c1.2.63,2.7.95,4.49.95,1.65,0,3.08-.29,4.28-.89s2.18-1.41,2.95-2.44c.76-1.04,1.33-2.27,1.7-3.7.37-1.43.55-2.97.55-4.64Z"/>
    <path class="cls-1" d="m326.59,418.14c0,.25-.01.46-.03.66-.02.19-.05.36-.09.5-.04.14-.1.27-.17.38-.07.11-.24.3-.5.57-.26.27-.71.6-1.33,1.01s-1.32.76-2.09,1.07c-.77.31-1.61.55-2.51.75-.9.19-1.82.29-2.78.29-1.92,0-3.61-.32-5.09-.96-1.48-.64-2.71-1.59-3.71-2.84s-1.76-2.79-2.28-4.61c-.52-1.82-.78-3.93-.78-6.31,0-2.69.32-4.99.96-6.91.64-1.91,1.52-3.48,2.64-4.71,1.12-1.22,2.43-2.12,3.93-2.71,1.5-.58,3.1-.87,4.81-.87.92,0,1.79.09,2.63.26s1.6.4,2.31.69c.7.29,1.33.61,1.88.98.55.37.95.68,1.21.93.25.25.43.45.52.58s.16.28.21.44.09.34.11.53c.02.19.03.42.03.69,0,.59-.09,1-.26,1.24-.17.23-.36.35-.57.35-.29,0-.64-.18-1.05-.55-.42-.37-.95-.77-1.6-1.21-.65-.44-1.44-.84-2.37-1.21-.93-.37-2.03-.55-3.32-.55-2.65,0-4.69,1.02-6.13,3.06s-2.15,4.98-2.15,8.83c0,1.94.19,3.63.58,5.09.39,1.46.94,2.67,1.67,3.64.72.97,1.6,1.69,2.64,2.17,1.04.48,2.21.72,3.51.72,1.22,0,2.3-.19,3.24-.58.94-.39,1.75-.81,2.44-1.28.69-.47,1.27-.9,1.73-1.28.46-.39.8-.58,1.02-.58.12,0,.23.04.32.11.09.07.17.18.23.34.06.15.11.34.14.55s.05.46.05.75Z"/>
    <path class="cls-1" d="m356.44,406.99c0,.73-.19,1.24-.58,1.51-.39.28-.76.41-1.13.41h-18.85c0,1.71.17,3.26.5,4.64.34,1.39.89,2.57,1.67,3.56.77.99,1.78,1.75,3.03,2.28,1.24.53,2.77.79,4.58.79,1.28,0,2.43-.11,3.45-.34,1.02-.22,1.9-.47,2.64-.75.74-.28,1.35-.52,1.83-.75.48-.22.82-.34,1.02-.34.12,0,.23.03.34.09.1.06.18.16.24.29.06.13.11.3.14.5.03.2.05.46.05.76,0,.14-.01.28-.03.41-.02.13-.05.25-.08.37s-.08.22-.14.32c-.06.1-.14.2-.24.31s-.42.28-.95.54c-.53.25-1.22.51-2.08.76s-1.85.48-2.98.69c-1.13.2-2.35.31-3.65.31-2.14,0-4.03-.32-5.68-.96-1.65-.64-3.04-1.59-4.16-2.84-1.12-1.25-1.97-2.81-2.55-4.66-.58-1.85-.87-4-.87-6.45s.3-4.44.9-6.29c.6-1.85,1.46-3.43,2.58-4.72,1.12-1.29,2.47-2.28,4.05-2.96s3.34-1.02,5.27-1.02c2.08,0,3.85.35,5.32,1.04s2.67,1.62,3.62,2.8c.95,1.17,1.64,2.53,2.08,4.08.44,1.55.66,3.18.66,4.89v.73Zm-3.76-1.07c.06-2.93-.61-5.22-2.02-6.88s-3.45-2.48-6.14-2.48c-1.39,0-2.6.26-3.65.78s-1.94,1.21-2.66,2.06c-.72.86-1.28,1.85-1.67,2.98-.39,1.13-.61,2.31-.67,3.53h16.81Z"/>
    <path class="cls-1" d="m380.15,395.99c0,.31-.01.57-.03.78-.02.21-.06.39-.11.52s-.11.23-.18.31c-.07.07-.17.11-.29.11-.18,0-.4-.05-.64-.14-.24-.09-.53-.19-.86-.29-.33-.1-.68-.2-1.07-.29s-.82-.14-1.28-.14c-.55,0-1.09.12-1.62.35-.53.23-1.08.61-1.67,1.13-.58.52-1.19,1.21-1.83,2.06-.64.86-1.35,1.9-2.12,3.15v18.7c0,.12-.03.23-.09.34-.06.1-.16.18-.29.25-.13.06-.32.11-.55.15-.23.04-.54.06-.9.06-.35,0-.64-.02-.87-.06-.23-.04-.42-.09-.57-.15-.14-.06-.24-.14-.29-.25-.05-.1-.08-.21-.08-.34v-27.65c0-.12.03-.23.08-.34.05-.1.15-.19.29-.26.14-.07.32-.12.54-.15s.49-.05.84-.05.63.02.86.05c.22.03.4.08.52.15.12.07.21.16.26.26.05.1.08.21.08.34v4.37c.79-1.16,1.53-2.1,2.2-2.81.67-.71,1.31-1.27,1.92-1.67.61-.4,1.21-.67,1.79-.81.58-.14,1.18-.21,1.79-.21.26,0,.57.01.92.05.35.03.72.09,1.12.17s.75.18,1.07.29c.32.11.54.21.66.31s.2.17.24.24c.04.07.08.16.11.28s.05.26.06.46c0,.19.01.44.01.75Z"/>
    <path class="cls-1" d="m397.45,422.85l-3.85,10.36c-.1.22-.32.41-.64.57-.33.15-.85.23-1.56.23-.37,0-.67-.02-.92-.06-.24-.04-.43-.12-.56-.23-.13-.11-.21-.25-.23-.43-.02-.17.02-.38.12-.63l3.91-9.81c-.16-.06-.31-.16-.43-.31s-.2-.29-.24-.43l-10.05-26.98c-.1-.29-.15-.51-.15-.69s.06-.31.17-.41c.11-.1.29-.17.55-.2s.6-.05,1.02-.05.8.02,1.07.05c.26.03.47.08.63.14.15.06.26.14.34.24.07.1.14.22.2.37l8.65,24.14h.12l8.5-24.14c.1-.28.24-.47.41-.56.17-.09.4-.15.69-.18s.63-.05,1.04-.05c.39,0,.71.02.96.06.25.04.44.11.57.21.12.1.18.24.18.41s-.05.39-.15.66l-10.33,27.71Z"/>
    <path class="cls-1" d="m453.06,385.02c0,.26-.02.5-.06.7-.04.2-.1.37-.18.5-.08.13-.18.23-.31.3-.12.07-.25.11-.4.11h-11.8v35.6c0,.12-.03.23-.09.34-.06.1-.16.18-.31.25-.14.06-.34.11-.58.15s-.54.06-.89.06-.64-.02-.89-.06c-.24-.04-.44-.09-.58-.15-.14-.06-.25-.14-.31-.25-.06-.1-.09-.21-.09-.34v-35.6h-11.79c-.16,0-.3-.04-.41-.11-.11-.07-.21-.17-.29-.3-.08-.13-.14-.3-.18-.5-.04-.2-.06-.44-.06-.7,0-.29.02-.54.06-.75.04-.21.1-.39.18-.54.08-.14.18-.25.29-.32.11-.07.25-.11.41-.11h27.32c.14,0,.27.04.4.11s.22.18.31.32c.08.14.14.32.18.54.04.21.06.46.06.75Z"/>
    <path class="cls-1" d="m469.75,395.99c0,.31-.01.57-.03.78-.02.21-.06.39-.11.52s-.11.23-.18.31c-.07.07-.17.11-.29.11-.18,0-.4-.05-.64-.14-.24-.09-.53-.19-.86-.29-.33-.1-.68-.2-1.07-.29s-.82-.14-1.28-.14c-.55,0-1.09.12-1.62.35-.53.23-1.08.61-1.67,1.13-.58.52-1.19,1.21-1.83,2.06-.64.86-1.35,1.9-2.12,3.15v18.7c0,.12-.03.23-.09.34-.06.1-.16.18-.29.25-.13.06-.32.11-.55.15-.23.04-.54.06-.9.06-.35,0-.64-.02-.87-.06-.23-.04-.42-.09-.57-.15-.14-.06-.24-.14-.29-.25-.05-.1-.08-.21-.08-.34v-27.65c0-.12.03-.23.08-.34.05-.1.15-.19.29-.26.14-.07.32-.12.54-.15s.49-.05.84-.05.63.02.86.05c.22.03.4.08.52.15.12.07.21.16.26.26.05.1.08.21.08.34v4.37c.79-1.16,1.53-2.1,2.2-2.81.67-.71,1.31-1.27,1.92-1.67.61-.4,1.21-.67,1.79-.81.58-.14,1.18-.21,1.79-.21.26,0,.57.01.92.05.35.03.72.09,1.12.17s.75.18,1.07.29c.32.11.54.21.66.31s.2.17.24.24c.04.07.08.16.11.28s.05.26.06.46c0,.19.01.44.01.75Z"/>
    <path class="cls-1" d="m494.13,422.24c0,.2-.07.36-.2.47-.13.11-.31.19-.52.25-.21.05-.5.08-.87.08-.35,0-.64-.03-.89-.08-.24-.05-.43-.13-.57-.25-.13-.11-.2-.27-.2-.47v-3.09c-1.24,1.34-2.61,2.38-4.11,3.12-1.5.73-3.05,1.1-4.66,1.1-1.45,0-2.75-.19-3.9-.57-1.15-.38-2.12-.92-2.92-1.62-.79-.7-1.41-1.55-1.83-2.55s-.64-2.12-.64-3.36c0-1.53.32-2.86.95-3.99.63-1.13,1.53-2.07,2.69-2.83,1.16-.75,2.56-1.32,4.19-1.7,1.63-.38,3.44-.57,5.44-.57h4.4v-2.38c0-1.18-.12-2.23-.37-3.13-.25-.91-.64-1.67-1.19-2.28s-1.26-1.07-2.14-1.38-1.95-.46-3.21-.46-2.32.15-3.3.44c-.98.3-1.83.63-2.57.99-.73.37-1.34.7-1.82.99-.48.3-.82.44-1.02.44-.12,0-.23-.02-.34-.06-.1-.04-.19-.12-.26-.23-.07-.11-.12-.25-.15-.43-.03-.17-.05-.38-.05-.63,0-.43.03-.77.09-1.02s.22-.51.47-.76c.25-.25.71-.55,1.36-.9.65-.35,1.4-.67,2.25-.96.85-.3,1.76-.54,2.74-.72.98-.18,1.96-.27,2.93-.27,1.89,0,3.49.23,4.8.69,1.3.46,2.36,1.12,3.16,1.97.8.86,1.38,1.91,1.73,3.16.35,1.25.52,2.67.52,4.26v18.7Zm-3.64-13.05h-5.04c-1.47,0-2.75.13-3.85.4-1.1.26-2.02.65-2.75,1.16-.73.51-1.28,1.12-1.63,1.83-.36.71-.53,1.53-.53,2.45,0,1.59.5,2.86,1.51,3.8,1.01.95,2.43,1.42,4.26,1.42,1.45,0,2.8-.37,4.05-1.12,1.25-.74,2.58-1.89,3.99-3.44v-6.51Z"/>
    <path class="cls-1" d="m526.52,422.24c0,.14-.03.27-.08.37s-.14.18-.27.24c-.13.06-.3.11-.5.14-.2.03-.46.05-.76.05-.33,0-.6-.02-.81-.05s-.39-.08-.52-.14c-.13-.06-.23-.14-.31-.24s-.11-.22-.11-.37v-3.97c-1.47,1.59-2.98,2.84-4.55,3.74-1.57.91-3.28,1.36-5.13,1.36-2,0-3.7-.39-5.1-1.16-1.41-.77-2.55-1.82-3.44-3.15-.89-1.32-1.53-2.88-1.94-4.66-.41-1.78-.61-3.67-.61-5.67,0-2.34.25-4.46.76-6.34.51-1.88,1.26-3.49,2.26-4.81,1-1.32,2.23-2.34,3.7-3.06s3.17-1.07,5.1-1.07c1.67,0,3.2.37,4.58,1.12,1.38.74,2.75,1.84,4.09,3.29v-16.65c0-.12.03-.23.08-.34.05-.1.15-.18.29-.24.14-.06.33-.11.57-.15.23-.04.52-.06.87-.06.37,0,.67.02.9.06.23.04.42.09.55.15.13.06.23.14.29.24.06.1.09.21.09.34v41.04Zm-3.64-19.95c-1.53-1.85-3-3.27-4.42-4.25-1.42-.98-2.9-1.47-4.45-1.47-1.41,0-2.61.34-3.61,1.01s-1.81,1.56-2.44,2.66c-.63,1.1-1.09,2.34-1.38,3.73-.29,1.38-.43,2.79-.43,4.22,0,1.53.12,3.01.37,4.46.24,1.45.66,2.74,1.25,3.87.59,1.13,1.38,2.04,2.35,2.72s2.2,1.02,3.67,1.02c.73,0,1.45-.1,2.14-.31.69-.2,1.41-.54,2.14-1.01s1.49-1.07,2.28-1.82c.78-.74,1.62-1.67,2.52-2.77v-12.07Z"/>
    <path class="cls-1" d="m559.28,406.99c0,.73-.19,1.24-.58,1.51-.39.28-.76.41-1.13.41h-18.85c0,1.71.17,3.26.5,4.64.34,1.39.89,2.57,1.67,3.56.77.99,1.78,1.75,3.03,2.28,1.24.53,2.77.79,4.58.79,1.28,0,2.43-.11,3.45-.34,1.02-.22,1.9-.47,2.64-.75.74-.28,1.35-.52,1.83-.75.48-.22.82-.34,1.02-.34.12,0,.23.03.34.09.1.06.18.16.24.29.06.13.11.3.14.5.03.2.05.46.05.76,0,.14-.01.28-.03.41-.02.13-.05.25-.08.37s-.08.22-.14.32c-.06.1-.14.2-.24.31s-.42.28-.95.54c-.53.25-1.22.51-2.08.76s-1.85.48-2.98.69c-1.13.2-2.35.31-3.65.31-2.14,0-4.03-.32-5.68-.96-1.65-.64-3.04-1.59-4.16-2.84-1.12-1.25-1.97-2.81-2.55-4.66-.58-1.85-.87-4-.87-6.45s.3-4.44.9-6.29c.6-1.85,1.46-3.43,2.58-4.72,1.12-1.29,2.47-2.28,4.05-2.96s3.34-1.02,5.27-1.02c2.08,0,3.85.35,5.32,1.04s2.67,1.62,3.62,2.8c.95,1.17,1.64,2.53,2.08,4.08.44,1.55.66,3.18.66,4.89v.73Zm-3.76-1.07c.06-2.93-.61-5.22-2.02-6.88s-3.45-2.48-6.14-2.48c-1.39,0-2.6.26-3.65.78s-1.94,1.21-2.66,2.06c-.72.86-1.28,1.85-1.67,2.98-.39,1.13-.61,2.31-.67,3.53h16.81Z"/>
  </g>
</svg>