<?xml version="1.0" encoding="UTF-8"?>
<svg id="Ebene_1" data-name="Ebene 1" xmlns="http://www.w3.org/2000/svg" viewBox="0 0 841.89 595.28">
  <defs>
    <style>
      .cls-1 {
        fill: #706f6f;
      }

      .cls-1, .cls-2, .cls-3, .cls-4, .cls-5, .cls-6, .cls-7 {
        stroke-width: 0px;
      }

      .cls-2 {
        fill: #dddc00;
      }

      .cls-3 {
        fill: #7bbb4c;
      }

      .cls-4 {
        fill: #fff;
      }

      .cls-5 {
        fill: #f1853b;
      }

      .cls-6 {
        fill: #eb6117;
      }

      .cls-7 {
        fill: #68c2c3;
      }
    </style>
  </defs>
  <g>
    <circle class="cls-1" cx="420.94" cy="297.63" r="188.29"/>
    <path class="cls-1" d="m420.94,504.75c-114.18,0-207.11-92.93-207.11-207.11s92.93-207.11,207.11-207.11,207.11,92.93,207.11,207.11-92.93,207.11-207.11,207.11Zm0-376.57c-93.44,0-169.46,76.01-169.46,169.46s76.01,169.46,169.46,169.46,169.46-76.01,169.46-169.46-76.01-169.46-169.46-169.46Z"/>
  </g>
  <g>
    <path class="cls-3" d="m373.22,444.86c38.03-5.74,64.23-41.02,58.52-78.81-3.44-22.81-6.89-45.61-10.33-68.42-22.95,3.46-45.9,6.93-68.85,10.39-38.03,5.74-64.23,41.02-58.52,78.81,5.7,37.78,41.15,63.76,79.18,58.02Z"/>
    <path class="cls-4" d="m362.77,462.46c-42.03,0-78.95-30.61-85.31-73.14-3.45-22.71,2.23-45.41,15.98-63.92,13.68-18.47,33.8-30.52,56.64-33.96l85.45-12.9,12.83,85.02c3.45,22.71-2.23,45.41-15.98,63.92-13.72,18.47-33.83,30.55-56.6,33.99h-.03c-4.36.66-8.7.98-12.96.98Zm44.53-145.69l-52.21,7.88c-13.98,2.13-26.32,9.52-34.68,20.8-8.37,11.25-11.81,25.07-9.75,38.85,4.3,28.58,31.3,48.2,60.05,43.97h0c13.98-2.13,26.28-9.52,34.68-20.8,8.37-11.29,11.81-25.1,9.75-38.88l-7.84-51.81Z"/>
  </g>
  <g>
    <path class="cls-7" d="m546.49,388.15c6.29-37.94-19.17-73.76-56.87-80.01-22.75-3.77-45.51-7.55-68.26-11.32-3.8,22.9-7.59,45.8-11.39,68.69-6.29,37.94,19.17,73.76,56.87,80.01,37.7,6.25,73.36-19.44,79.65-57.37Z"/>
    <path class="cls-4" d="m478.11,463.25c-4.63,0-9.29-.36-14.01-1.15-46.79-7.78-78.49-52.34-70.68-99.33l14.14-85.28,84.82,14.08c46.79,7.78,78.49,52.34,70.68,99.33-7.02,42.26-43.64,72.35-84.95,72.35Zm-42.92-147.1l-8.63,52.11c-4.76,28.74,14.54,55.98,43.05,60.7,28.61,4.53,55.55-14.86,60.31-43.58h0c4.76-28.71-14.54-55.95-43.05-60.67l-51.68-8.56Z"/>
  </g>
  <g>
    <path class="cls-5" d="m546.69,206.58c-34.14-17.71-76.07-4.56-93.67,29.36-10.62,20.47-21.24,40.95-31.86,61.42,20.6,10.69,41.21,21.37,61.81,32.06,34.14,17.71,76.07,4.56,93.67-29.36,17.59-33.92,4.18-75.77-29.95-93.48Z"/>
    <path class="cls-4" d="m515.02,354.08c-13.42,0-27.04-3.12-39.77-9.71l-76.72-39.84,39.61-76.32c10.57-20.41,28.51-35.44,50.5-42.33,21.92-6.99,45.32-4.86,65.79,5.81,42.3,21.95,58.93,74.03,37.14,116.13-15.26,29.4-45.35,46.27-76.55,46.27Zm-71.2-63.89l46.89,24.35c25.82,13.36,57.75,3.45,71.01-22.21,13.29-25.63,3.08-57.39-22.77-70.84-12.57-6.5-26.84-7.81-40.26-3.54-13.39,4.2-24.28,13.32-30.71,25.76l-24.15,46.5Z"/>
  </g>
  <g>
    <path class="cls-2" d="m374.3,149.75c-27.39,26.99-27.85,70.94-1.02,98.16,16.19,16.43,32.38,32.85,48.57,49.28,16.53-16.29,33.06-32.59,49.59-48.88,27.39-26.99,27.85-70.94,1.02-98.16-26.82-27.22-70.77-27.4-98.16-.4Z"/>
    <path class="cls-4" d="m421.67,320.94l-60.38-61.26c-33.27-33.73-32.71-88.43,1.25-121.9,16.31-16.11,37.9-24.97,60.77-24.97.13,0,.23,0,.36.03,23.03.07,44.63,9.15,60.77,25.53,33.27,33.76,32.75,88.46-1.21,121.93l-61.56,60.64Zm1.64-174.53c-14.01,0-27.2,5.45-37.18,15.29l-.03.03c-20.74,20.44-21.13,53.81-.85,74.39l36.75,37.31,37.67-37.08c20.74-20.44,21.13-53.81.82-74.42-9.78-9.94-22.94-15.46-36.95-15.52h-.23Z"/>
  </g>
  <g>
    <path class="cls-6" d="m266.03,296.95c17.21,34.39,58.86,48.41,93.04,31.31,20.63-10.32,41.25-20.64,61.88-30.96-10.39-20.76-20.77-41.51-31.16-62.27-17.21-34.39-58.86-48.41-93.04-31.31-34.17,17.1-47.92,58.84-30.71,93.23Z"/>
    <path class="cls-4" d="m328.35,352.37c-9.22,0-18.51-1.51-27.53-4.53-21.79-7.35-39.47-22.74-49.81-43.38h0c-10.34-20.64-12.04-44-4.86-65.86,7.22-21.89,22.51-39.64,43.08-49.91,20.57-10.3,43.87-11.88,65.76-4.56,21.79,7.35,39.51,22.74,49.81,43.38l38.69,77.31-76.91,38.46c-12.08,6.04-25.1,9.09-38.23,9.09Zm-.85-139.13c-7.97,0-15.88,1.84-23.23,5.51-12.5,6.23-21.82,17.03-26.19,30.35-4.4,13.36-3.35,27.69,2.99,40.33h0c6.3,12.63,17.13,22.05,30.48,26.55,13.26,4.46,27.5,3.51,40-2.76l46.86-23.43-23.66-47.22c-6.3-12.67-17.13-22.08-30.48-26.58-5.48-1.84-11.16-2.76-16.77-2.76Z"/>
  </g>
</svg>