<?xml version="1.0" encoding="UTF-8" standalone="no"?>
<!-- Created with Inkscape (http://www.inkscape.org/) -->

<svg
   version="1.1"
   id="svg2"
   width="719.53333"
   height="243.08"
   viewBox="0 0 719.53333 243.08"
   sodipodi:docname="TryMOIN_Logo_2025_rgb_black (1).eps"
   xmlns:inkscape="http://www.inkscape.org/namespaces/inkscape"
   xmlns:sodipodi="http://sodipodi.sourceforge.net/DTD/sodipodi-0.dtd"
   xmlns="http://www.w3.org/2000/svg"
   xmlns:svg="http://www.w3.org/2000/svg">
  <defs
     id="defs6" />
  <sodipodi:namedview
     id="namedview4"
     pagecolor="#ffffff"
     bordercolor="#000000"
     borderopacity="0.25"
     inkscape:showpageshadow="2"
     inkscape:pageopacity="0.0"
     inkscape:pagecheckerboard="0"
     inkscape:deskcolor="#d1d1d1" />
  <g
     id="g8"
     inkscape:groupmode="layer"
     inkscape:label="ink_ext_XXXXXX"
     transform="matrix(1.3333333,0,0,-1.3333333,0,243.08)">
    <g
       id="g10"
       transform="scale(0.1)">
      <path
         d="m 1117.1,1691.15 c 258.35,-8.42 425.52,-45 458.67,-100.21 1.89,-3.81 10.44,-10.63 20.71,-10.63 8.87,0 16.55,4.03 21.07,11.07 5.11,7.92 5.56,18.35 1.08,28.16 -41.36,67.54 -194.63,108.27 -455.63,121.05 5.7,6.14 11.39,11.83 16.93,17.37 6.85,6.85 13.33,13.33 19.24,20.04 7.57,6.15 10.81,14.29 9.12,22.96 -1.89,9.63 -9.62,18.09 -19.24,21.02 -8.68,2.63 -17.23,0.38 -24.02,-6.39 -21.44,-21.45 -45.72,-45.73 -68.67,-73.16 -73.28,2.64 -154.255,2.14 -262.321,-1.57 -218.32,-9.17 -420.09,-31.34 -568.117,-62.43 -177.1759,-37.21 -266.648563,-83.9 -265.91809375,-138.74 0,-15.31 10.29299375,-25.61 25.60549375,-25.61 15.3125,0 25.5976,10.3 25.5976,25.67 -1.3984,63.1 357.195,131.75 783.035,149.91 84.094,3.37 155.969,4.39 219.538,3.18 C 824.41,1414.06 536.82,907.625 620.922,799.328 c 2.199,-4.398 9.66,-9.078 19.172,-9.078 9.472,0 17.793,5.121 22.254,13.699 4.562,8.75 3.898,19.176 -1.727,27.211 -54.16,76.113 205.926,565.97 456.479,859.99"
         style="fill:#040606;fill-opacity:1;fill-rule:nonzero;stroke:none"
         id="path12" />
      <path
         d="m 3899.4,1137 c -12.58,-39.45 -31.65,-68.9 -57.21,-88.4 -25.57,-19.5 -57.85,-29.25 -96.85,-29.25 -30.35,0 -56.77,5.63 -79.29,16.89 -22.55,11.25 -41.41,28.38 -56.56,51.35 -15.17,22.96 -26.44,51.78 -33.8,86.46 -7.37,34.65 -11.05,74.95 -11.05,120.9 0,60.65 6.5,111.35 19.5,152.1 13,40.72 32.5,71.27 58.5,91.65 26,20.36 58.05,30.55 96.2,30.55 39.85,0 73.01,-10.62 99.45,-31.85 26.43,-21.25 46.35,-52.66 59.8,-94.25 13.43,-41.6 20.15,-94.05 20.15,-157.29 0,-59.81 -6.3,-109.44 -18.84,-148.86 z m 131.93,492.05 c -33.79,37.25 -74.75,65.2 -122.83,83.86 -48.11,18.61 -102.5,27.95 -163.16,27.95 -78.87,0 -148.42,-16.49 -208.65,-49.41 -60.24,-32.95 -107.05,-82.55 -140.4,-148.86 -33.37,-66.29 -50.05,-150.58 -50.05,-252.85 0,-71.93 8.88,-135.64 26.65,-191.09 17.76,-55.47 43.55,-101.849 77.36,-139.103 33.79,-37.266 74.95,-65.449 123.49,-84.492 48.53,-19.063 103.13,-28.606 163.8,-28.606 59.81,0 114.18,9.328 163.15,27.949 48.96,18.625 90.99,46.575 126.11,83.848 35.1,37.258 61.95,84.054 80.58,140.404 18.64,56.33 27.95,121.76 27.95,196.3 0,73.66 -8.88,138.44 -26.64,194.34 -17.77,55.91 -43.55,102.48 -77.36,139.76"
         style="fill:#040606;fill-opacity:1;fill-rule:nonzero;stroke:none"
         id="path14" />
      <path
         d="m 4242.43,864.645 h 211.9 v 858.005 h -211.9 V 864.645"
         style="fill:#040606;fill-opacity:1;fill-rule:nonzero;stroke:none"
         id="path16" />
      <path
         d="m 5188.53,1722.65 v -581.1 h -2.6 l -305.5,581.1 h -282.1 V 864.645 h 208 v 600.605 h 2.6 l 322.4,-600.605 h 265.19 v 858.005 h -207.99"
         style="fill:#040606;fill-opacity:1;fill-rule:nonzero;stroke:none"
         id="path18" />
      <path
         d="M 1840.5,243.941 C 1769.34,81.6406 1683.94,29.7109 1630.81,50.3086 c -57.6,22.3398 -69.52,121.5004 -28.98,241.1134 59.51,173.578 208.13,393.656 408.23,604.719 -39.2,-253.11 -102.42,-496.422 -169.56,-652.2 z M 3025.65,1722.64 v 0 h -32.16 l -173,-509.7 -176.7,509.7 h -32.56 v 0 h -195 l -22.13,-271.28 v 0 c -10.34,-166.29 -252.06,-363.05 -314.07,-423.18 14.84,125.49 19.2,235.64 11.65,285.49 -4.54,30.28 -10.8,49.13 -29.64,55.97 -16.57,3.7 -31.13,-3.46 -48.52,-23.77 -14.72,-14.72 -31.52,-34.94 -50.97,-58.35 l -9.21,-11.07 -18.16,-20.76 c -68.54,-78.4 -153.92,-176.04 -177.61,-168.03 -12.55,5.56 -6.68,44.75 1.46,98.94 5.74,34.48 12.34,80.05 12.34,126.7 0,3.84 -0.65,7.36 -1.86,10.48 -1.86,35.65 -16.94,63.22 -44.26,79.82 -51.98,31.61 -139.78,19.74 -240.83,-32.64 -123.44,-62.42 -247.48,-146.86 -326.85,-222.22 7.81,20.82 15.64,42.01 22.35,62.15 12.06,37.92 22.6,67.05 32.28,89.16 12.32,30.77 16.2,52.57 -2.21,65.93 -10.64,9.47 -30.01,14.46 -61.94,-15.49 -7.71,-7.72 -22.1,-23.06 -38.77,-40.82 -13.46,-14.35 -28.48,-30.37 -42.92,-45.49 l -64.42,-69.06 c -7.569,-6.16 -10.803,-14.31 -9.112,-22.96 1.883,-9.65 9.622,-18.1 19.242,-21.04 8.65,-2.62 17.22,-0.38 23.9,6.3 8.51,7.56 27.69,28.08 49.89,51.83 13.92,14.89 29.7,31.77 44.16,46.83 4.86,4.87 9.25,9.67 13.5,14.33 0.6,0.65 1.19,1.3 1.78,1.94 -4.22,-10.85 -8.01,-22.37 -11.71,-33.62 l -6.84,-20.64 c -11.01,-33.18 -22.41,-67.48 -36.19,-97.8 -17.14,-37.3 -21.41,-63.11 -12.7,-76.7 4.25,-6.63 11.34,-10 20.86,-10 0.01,0 0.02,0 0.04,0 0.75,-0.07 1.5,-0.09 2.25,-0.09 17.13,0 35.01,17.58 59.95,44.09 65.94,77.18 202.27,174.88 347.29,248.88 87.83,44.85 154.33,58.42 187.29,38.24 15.35,-9.39 23.14,-25.66 23.14,-48.33 0,-3.1 0.52,-5.92 1.32,-8.56 -0.46,-29.19 -4.38,-59.03 -8.3,-87.97 -0.78,-5.77 -1.56,-11.48 -2.28,-17.06 -10.75,-70.64 -21.87,-143.69 29.31,-162.89 63.13,-23.7 179.79,116.1 256.89,208.62 l 45.6,52.72 c 6.21,-56.39 -0.51,-169.27 -19.07,-319.443 C 1788.31,744.93 1617.68,499.531 1553.98,308.449 1528.24,233.328 1521.56,164.352 1534.68,108.98 1546.62,58.6406 1574.34,22.6484 1612.74,7.64844 1625.6,2.62891 1639.52,0 1654.19,0 c 72.86,0.0117188 164.18,64.8008 234.03,223.488 73.88,171.512 140.41,435.883 179.86,718.899 0.69,4.949 3.12,9.383 6.53,13.039 55.15,59.164 225.46,194.974 306.08,331.584 l -34.46,-422.365 h 195 l 44.03,539.695 161.33,-530.629 h 124.6 l 180.25,532.759 44.21,-541.825 h 185 l -70,857.995 h -185"
         style="fill:#040606;fill-opacity:1;fill-rule:nonzero;stroke:none"
         id="path20" />
    </g>
  </g>
</svg>
